<svg width="195" height="142" viewBox="0 0 195 142" fill="none" xmlns="http://www.w3.org/2000/svg">
<path d="M0.986769 23.4934V23.9869L2.96054 24.4803V23.9869L0.986769 23.4934Z" fill="black"/>
<path d="M2.96054 26.9475L2.96054 27.441L4.44087 27.441V27.9344L3.45399 28.4279L9.86875 37.3099L9.3753 31.3885H7.40153L8.38842 30.4016L2.96054 26.9475Z" fill="black"/>
<path d="M7.40153 26.9475V27.441L9.86875 27.9344L7.40153 26.9475Z" fill="black"/>
<path d="M3.45399 28.4279L5.9212 30.4016V29.9082L3.45399 28.4279Z" fill="black"/>
<path d="M19.2443 28.4279V28.9213H23.1919L19.2443 28.4279Z" fill="black"/>
<path d="M24.1786 28.9213V29.4148L39.4753 30.4016C35.9326 27.5017 28.5428 28.9213 24.1786 28.9213Z" fill="black"/>
<path d="M7.40153 30.8951L8.38842 31.882V30.8951L7.40153 30.8951Z" fill="black"/>
<path d="M17.2704 30.8951V31.3885H23.1917L17.2704 30.8951ZM31.0868 30.8951V31.3885L36.0212 31.882L31.0868 30.8951ZM6.90809 31.3885V32.3754H7.89498L6.90809 31.3885Z" fill="black"/>
<path d="M22.2048 33.3623L24.1786 31.882L25.6589 32.8689L25.1655 31.882L26.6458 33.3623H32.5671L34.5409 39.2836L35.0344 39.7771H36.0212C39.0054 32.3064 26.3569 28.3775 22.2048 33.3623Z" fill="black"/>
<path d="M76.977 31.3885L78.9508 33.3623L78.4574 32.3754H78.9508L80.9246 32.8689L76.977 31.3885Z" fill="black"/>
<path d="M23.6852 31.882L21.2179 36.323H21.7114L26.6458 33.3623L25.1655 31.882L25.6589 32.8689L25.1655 32.8689L23.6852 31.882Z" fill="black"/>
<path d="M68.0951 31.882L67.6016 32.3754L68.0951 33.8558H68.5885L68.0951 32.3754C70.4034 33.3537 72.6421 33.8305 75.0033 32.8689L74.5098 47.1787H75.0033L75.4967 32.3754L68.0951 31.882Z" fill="black"/>
<path d="M103.623 32.8689L108.557 35.8295V35.3361L105.103 33.8558L106.09 32.8689H103.623Z" fill="black"/>
<path d="M27.1393 32.8689V33.3623L31.0868 33.8558L27.1393 32.8689Z" fill="black"/>
<path d="M30.5934 32.8689V33.3623L32.5671 33.8558L32.5671 33.3623L30.5934 32.8689Z" fill="black"/>
<path d="M81.418 32.8689V33.3623H83.3918L81.418 32.8689Z" fill="black"/>
<path d="M21.2181 33.3623C17.1846 37.5569 15.9333 40.4521 16.2836 46.1918H16.7771L21.2181 33.3623Z" fill="black"/>
<path d="M74.5098 33.3623C71.2615 37.8609 73.0374 44.4463 73.0295 49.6459C73.026 52.0188 72.2227 54.6891 74.5098 56.0607C74.4684 51.0498 75.8244 42.7199 73.5229 38.2967C75.5831 37.8552 75.399 34.9053 74.5098 33.3623Z" fill="black"/>
<path d="M86.3525 33.3623V33.8558H88.3262L86.3525 33.3623ZM90.3 33.3623V33.8558H91.7803L90.3 33.3623Z" fill="black"/>
<path d="M24.1786 33.8558L21.7114 36.323L24.672 34.3492L24.1786 33.8558Z" fill="black"/>
<path d="M31.0868 33.8558L32.5671 34.8426V34.3492L31.0868 33.8558Z" fill="black"/>
<path d="M69.0819 34.3492L71.0557 44.2181H71.5492C71.5492 40.8102 72.616 36.1317 69.0819 34.3492Z" fill="black"/>
<path d="M72.0426 34.3492L71.5492 36.8164H72.0426V34.3492ZM80.9246 34.3492V34.8426H82.4049L80.9246 34.3492Z" fill="black"/>
<path d="M83.8852 34.3492L86.8459 35.3361V34.8426L83.8852 34.3492Z" fill="black"/>
<path d="M108.064 34.3492L108.064 34.8426H109.544L108.064 34.3492Z" fill="black"/>
<path d="M82.4049 34.8426V35.3361H83.8852L82.4049 34.8426ZM89.3131 35.3361L91.7803 36.8164L90.3 34.8426L89.3131 35.3361Z" fill="black"/>
<path d="M85.3656 35.3361V35.8295L89.8066 37.3099L85.3656 35.3361Z" fill="black"/>
<path d="M33.554 35.8295L34.5409 38.2967H35.0344L33.554 35.8295Z" fill="black"/>
<path d="M43.4229 35.8295C41.8597 42.2171 35.9159 44.007 32.0737 48.6591L36.0212 47.6722V47.1787H34.5409V46.6853L39.9688 46.1918C42.4177 43.0455 45.2624 40.2444 43.4229 35.8295Z" fill="black"/>
<path d="M44.4098 35.8295V40.2705H44.9032L44.4098 35.8295Z" fill="black"/>
<path d="M154.941 36.8164V37.3099L157.902 35.8295L154.941 36.8164Z" fill="black"/>
<path d="M21.2179 36.323L18.7507 40.2705H19.2442L21.2179 36.323Z" fill="black"/>
<path d="M89.8066 36.323L88.3262 36.8164V37.3099L95.7279 41.7508V41.2574L94.2475 40.764C93.8331 38.4429 91.8371 37.3346 89.8066 36.323Z" fill="black"/>
<path d="M157.408 36.323C155.716 37.6601 154.502 37.8123 155.435 40.2705L157.902 40.764H155.928L155.435 46.1918H155.928L156.915 42.2443L157.902 42.7377L157.408 41.2574L160.369 38.2967L158.395 36.323H157.408Z" fill="black"/>
<path d="M34.0475 36.8164V40.2705H34.5409L34.0475 36.8164ZM87.3393 36.8164L88.8197 37.8033V37.3099L87.3393 36.8164Z" fill="black"/>
<path d="M39.9688 37.3099L39.4753 40.2705H39.9688L40.9557 37.8033L39.9688 37.3099Z" fill="black"/>
<path d="M90.3 37.3099L92.2738 39.7771V38.2967L90.3 37.3099Z" fill="black"/>
<path d="M110.531 37.3099L111.518 38.2967V37.3099L110.531 37.3099Z" fill="black"/>
<path d="M158.889 38.2967V39.7771L159.876 38.2967H158.889Z" fill="black"/>
<path d="M90.2999 38.7902L90.2999 39.7771H91.2867L90.2999 38.7902Z" fill="black"/>
<path d="M74.5098 39.2836V42.7377H75.0033L74.5098 39.2836Z" fill="black"/>
<path d="M115.465 39.2836L114.972 43.7246H115.466L115.465 39.2836Z" fill="black"/>
<path d="M156.915 39.2836L155.928 40.764C157.039 40.5304 157.467 40.3394 156.915 39.2836Z" fill="black"/>
<path d="M69.0819 39.7771V46.1918H69.5754L69.0819 39.7771ZM95.2344 39.7771L98.1951 42.7377V42.2443L95.2344 39.7771Z" fill="black"/>
<path d="M114.479 39.7771C113.635 44.7338 106.083 56.7271 115.959 57.0476V56.5541C108.154 52.715 116.798 45.3563 114.479 39.7771Z" fill="black"/>
<path d="M146.553 40.2705V40.764H150.007L146.553 40.2705Z" fill="black"/>
<path d="M17.2704 40.764V43.7246H17.7638L18.7507 41.2574L17.2704 40.764ZM43.4229 40.764V42.7377H43.9163L43.4229 40.764Z" fill="black"/>
<path d="M43.9163 47.1787H44.4098C46.5577 44.4157 50.7589 42.5025 54.2786 42.2443V41.7508H52.7983V41.2574H59.7065C54.1652 38.9321 46.5775 42.0526 43.9163 47.1787Z" fill="black"/>
<path d="M132.243 40.764V41.2574H134.71L132.243 40.764Z" fill="black"/>
<path d="M165.303 40.764V41.2574H167.771L165.303 40.764Z" fill="black"/>
<path d="M165.797 51.6197V51.1263L161.849 49.6459C163.422 50.2208 164.894 50.567 165.303 48.6591H165.797L175.172 51.6197L166.784 50.6328V51.1263C175.067 51.1501 171.292 57.2765 164.81 57.0476C164.727 54.5082 163.99 53.3855 161.356 54.0869L161.849 55.5673L154.448 53.5935V54.0869C158.583 55.4966 159.423 59.419 164.316 58.5279V59.0214H163.33V59.5148L172.705 59.0214V58.5279H170.238V58.0345C174.567 56.6631 175.159 53.4397 178.133 50.6328V54.0869H178.626C178.619 51.4763 178.575 48.9383 175.658 47.9943C172.086 46.8381 164.905 50.5452 164.81 44.7115L162.343 44.2181V43.7246C166.466 42.5487 169.441 41.1887 173.692 42.7377V43.2312L171.225 42.7377L172.212 45.6984L174.679 45.2049C174.926 43.3145 176.633 43.9407 178.133 44.2181V44.7115H176.159V45.2049H178.626C177.466 37.845 163.985 40.5896 159.922 43.9119C156.518 46.6954 157.674 50.2444 161.849 51.3444C163.129 51.6817 164.486 51.6161 165.797 51.6197Z" fill="black"/>
<path d="M10.8556 41.2574V42.7377H11.3491L10.8556 41.2574ZM61.6803 41.2574V41.7508H65.6278L61.6803 41.2574ZM84.3787 42.7377V43.2312L88.8197 41.7508L84.3787 42.7377ZM124.841 41.2574V41.7508H126.815L124.841 41.2574ZM150.994 41.2574V41.7508L153.954 43.7246L150.994 41.2574Z" fill="black"/>
<path d="M160.369 42.7377V43.2312L164.81 42.2443V41.2574L160.369 42.7377Z" fill="black"/>
<path d="M67.108 41.7508V44.7115H67.6015L68.0949 41.7508H67.108Z" fill="black"/>
<path d="M128.295 57.0476L123.854 56.0607L124.348 58.5279L129.282 59.0214V42.7377L133.723 44.2181C132.125 42.2033 128.478 40.7796 127.465 44.3094C126.394 48.0417 127.272 53.4061 128.295 57.0476Z" fill="black"/>
<path d="M137.671 42.2443V42.7377L142.112 42.2443H137.671ZM155.435 41.7508V43.2312H155.928L155.435 41.7508Z" fill="black"/>
<path d="M162.343 43.7246V44.2181L165.797 44.2181L165.303 42.7377L166.784 43.7246L173.692 43.2312C170.581 40.3706 165.74 42.3402 162.343 43.7246Z" fill="black"/>
<path d="M52.7983 42.7377V43.2312H58.7196L52.7983 42.7377ZM135.697 42.2443L135.203 43.7246H136.684L135.697 42.2443ZM143.098 42.7377V43.2312L148.526 42.7377L149.02 47.1787H149.513V45.2049L150.5 45.6984C149.901 41.9093 146.215 41.8164 143.098 42.7377Z" fill="black"/>
<path d="M9.3753 42.7377L11.3491 45.2049L11.8425 44.7115L9.3753 42.7377Z" fill="black"/>
<path d="M11.8425 42.7377L11.3491 43.7246H12.336L11.8425 42.7377Z" fill="black"/>
<path d="M51.318 43.7246L51.8114 45.2049L60.2 44.2181C57.5694 42.0648 54.3359 42.8765 51.318 43.7246Z" fill="black"/>
<path d="M66.1213 42.7377L65.6278 43.7246H66.6147L66.1213 42.7377ZM90.7934 42.7377V43.2312H96.7148L90.7934 42.7377Z" fill="black"/>
<path d="M123.361 42.7377V45.2049H123.854L123.361 42.7377Z" fill="black"/>
<path d="M144.579 42.7377V43.2312L148.526 44.2181L148.526 42.7377H144.579Z" fill="black"/>
<path d="M169.744 42.7377V43.2312H171.225L169.744 42.7377Z" fill="black"/>
<path d="M61.6803 43.2312V43.7246H64.641L61.6803 43.2312Z" fill="black"/>
<path d="M87.8328 44.7115L98.6885 44.2181C96.361 42.6278 89.587 42.2289 87.8328 44.7115Z" fill="black"/>
<path d="M114.479 43.2312V46.1918H114.972L114.479 43.2312Z" fill="black"/>
<path d="M139.151 44.2181L138.657 44.7115L137.671 46.1918L138.164 45.2049L136.19 49.1525L134.71 49.6459L135.697 50.6328V57.0476L132.736 59.0214H137.671L137.177 54.5804L143.592 56.0607V55.5673H142.605V55.0738L145.566 55.5673V56.0607H144.085V56.5541L154.941 59.0214V58.5279L145.566 56.5541C144.897 53.4172 138.797 54.1082 136.19 54.0869L142.112 43.7246L139.151 44.2181Z" fill="black"/>
<path d="M154.941 43.2312V46.1918L155.435 46.1918L154.941 43.2312Z" fill="black"/>
<path d="M167.771 43.2312V43.7246H169.744L167.771 43.2312ZM178.626 43.2312V45.2049L179.12 45.2049L178.626 43.2312Z" fill="black"/>
<path d="M15.2968 43.7246V45.2049H15.7902L15.2968 43.7246Z" fill="black"/>
<path d="M17.2704 43.7246V48.1656H17.7638L17.2704 43.7246Z" fill="black"/>
<path d="M41.9426 43.7246L39.9688 46.1918H40.4622L42.436 44.2181L41.9426 43.7246Z" fill="black"/>
<path d="M49.3444 46.1918C45.2779 48.9778 47.7846 54.7044 51.3181 56.5541L50.3313 46.1918L51.8116 46.6853L52.7985 45.2049V44.7115L51.8114 45.2049L52.305 44.2181C50.5597 44.1522 49.6848 44.4286 49.3444 46.1918Z" fill="black"/>
<path d="M54.7721 43.7246L54.7722 44.2181H56.2524L54.7721 43.7246Z" fill="black"/>
<path d="M57.2393 43.7246V44.2181L59.2131 44.7115V44.2181L57.2393 43.7246Z" fill="black"/>
<path d="M59.2131 44.2181L60.2 46.1918H60.6934V43.7246L59.2131 44.2181ZM64.641 43.7246L63.6541 56.0607L61.1868 54.5804L49.8377 58.5279C49.3876 55.8502 47.4977 54.8793 44.9032 55.0738C47.7045 60.2269 50.899 57.8194 55.2655 59.0214L55.759 57.541C57.6888 58.8319 59.1736 57.762 61.1868 57.0476V59.0214H61.6803V57.541L66.1213 58.5279L66.6147 44.2181L64.641 43.7246Z" fill="black"/>
<path d="M65.1344 43.7246V44.2181H66.6147L65.1344 43.7246Z" fill="black"/>
<path d="M87.3393 43.7246C83.1579 47.0152 82.4177 55.2506 88.8197 56.5541V56.0607C84.4576 52.3209 86.6337 48.1889 89.3131 44.2181L87.3393 43.7246Z" fill="black"/>
<path d="M91.2869 43.7246V44.2181H94.741L91.2869 43.7246Z" fill="black"/>
<path d="M96.2213 44.2181V44.7115L98.6885 47.1787H99.182L100.169 46.1918V45.6984L99.182 43.7246L96.2213 44.2181Z" fill="black"/>
<path d="M131.749 43.7246V45.2049H132.243L131.749 43.7246Z" fill="black"/>
<path d="M105.103 33.8558V33.3623C108.883 34.0832 113.155 36.2961 114.785 39.7771H114.479C114.278 41.794 113.516 43.5558 112.749 45.3305C112.233 46.5245 111.714 47.7244 111.362 49.0116C109.512 55.7737 115.478 58.9434 120.886 54.8602C123.711 52.7273 123.551 50.2164 123.397 47.7882C123.279 45.945 123.165 44.1496 124.362 42.6033C126.647 39.649 135.858 39.7938 137.177 43.2312C142.656 41.4949 157.657 38.04 152.967 49.1525H151.487C152.08 50.9358 150.665 51.9363 149.261 52.9292C149.18 52.9861 149.1 53.043 149.02 53.1L151.487 49.6459L145.072 53.1V54.0869L148.526 53.1C149.405 56.5538 154.713 58.0964 157.902 58.5279V59.0214L151.487 59.5148V59.0214H154.941V58.5279L136.19 54.0869L137.177 51.1263H137.671V52.6061V53.1C140.242 52.9823 143.5 52.0315 145.672 50.2148C146.866 49.4182 147.716 48.4042 147.81 47.1445C147.991 46.5442 148.072 45.8979 148.033 45.2049H148.526L149.02 47.1787H149.513V45.2049L150.5 45.6984C149.464 42.0977 146.289 41.9786 143.098 42.7377V43.2312H146.059L146.059 43.7246C145.667 43.7168 145.266 43.7127 144.861 43.7163C144.716 43.7113 144.569 43.7138 144.42 43.7233C140.707 43.8107 136.779 44.6471 136.19 49.1525L134.71 49.6459L135.697 57.0476L132.736 59.0214H136.19V59.5148H132.243C132.243 58.2006 132.311 56.803 132.381 55.3693C132.591 51.0587 132.817 46.421 131.256 42.7377L133.723 44.2181C125.524 37.0068 127.463 53.0127 128.295 57.0476H117.933L115.466 59.0214V58.5279L116.946 57.541C114.938 58.1289 113.384 57.2563 111.918 56.4323C110.662 55.7268 109.469 55.0568 108.108 55.37C106.522 55.7352 104.916 57.2936 103.323 58.8404C102.093 60.0342 100.87 61.2211 99.6681 61.8473C93.1759 65.2307 86.6146 65.4361 79.4444 65.4361V65.9296H90.3001V66.423H72.5362V65.9296H78.4575V65.4361C77.55 65.3214 76.6204 65.1964 75.674 65.0692C67.8615 64.0185 58.9042 62.8139 51.8115 66C48.2652 67.593 44.2599 70.0889 43.9164 74.3181L47.864 70.864L44.9033 76.7853H44.4099V74.8115H43.9164C44.0512 81.6803 44.7765 89.9494 51.3255 93.8841C58.5515 98.2259 70.8624 95.169 68.5886 84.6804L70.0689 87.1476L72.0427 86.1607C71.758 84.9632 71.453 83.7957 70.8501 82.7076C67.3301 76.3629 63.4626 79.0932 59.6307 81.7983C58.3311 82.7158 57.0356 83.6303 55.7591 84.187C57.0386 81.0008 59.3824 79.6049 62.6673 78.7591L62.1738 76.2919C70.7762 73.5777 75.4138 77.9172 77.1811 84.6006L74.0165 89.1214L72.0427 88.628C74.2341 93.1573 67.5553 97.0362 63.6542 96.5231V97.0165L64.6411 97.5099C56.967 99.4956 46.5376 98.0675 41.2493 91.5028C39.6177 89.4773 38.6287 86.9667 37.6586 84.504C37.2863 83.5588 36.9168 82.6207 36.5148 81.7197H36.0214L38.982 92.0821H38.4886C36.9725 88.8826 35.5825 85.8217 35.537 82.2132C35.5031 79.5185 36.2986 77.2788 37.2805 74.8115C43.232 59.8584 57.1626 61.5005 71.098 63.143C79.3685 64.1179 87.6407 65.0929 94.2477 62.5992C102.008 59.6702 105.478 53.5799 109.305 46.7691C109.619 46.2109 110.039 45.6549 110.469 45.0871C111.495 43.7312 112.572 42.3075 112.364 40.6235C111.943 37.2027 107.866 35.1626 105.103 33.8558Z" fill="black"/>
<path d="M77.2965 85.0573C77.2595 84.9039 77.221 84.7516 77.1811 84.6006L77.4706 84.187L77.2965 85.0573Z" fill="black"/>
<path d="M77.2965 85.0573C77.6426 86.4914 77.8617 88.0254 77.964 89.6148L76.4837 89.1214L77.2965 85.0573Z" fill="black"/>
<path d="M114.972 40.2117C114.915 40.0647 114.852 39.9198 114.785 39.7771H114.972V40.2117Z" fill="black"/>
<path d="M114.972 40.2117C115.28 40.9945 115.455 41.8373 115.466 42.7377H114.972V40.2117Z" fill="black"/>
<path d="M153.954 43.7246V47.1787H154.448L153.954 43.7246Z" fill="black"/>
<path d="M174.185 44.2181V44.7115L178.133 44.7115L174.185 44.2181Z" fill="black"/>
<path d="M54.2786 44.2181L51.318 47.6722H51.8114L54.7721 44.7115L54.2786 44.2181Z" fill="black"/>
<path fill-rule="evenodd" clip-rule="evenodd" d="M52.7983 41.7508V41.2574H68.0951L67.108 44.7115L66.615 44.7118V42.738C63.2612 45.6275 63.417 49.4108 63.5817 53.4071C63.6178 54.2839 63.6541 55.1706 63.6541 56.0607C63.5873 56.0593 63.5224 56.0583 63.4589 56.0571C62.1178 56.0314 61.495 56.0192 61.1868 54.5804L49.8377 58.5279C49.0995 56.1078 47.3887 55.0315 44.9032 55.0738L45.8904 57.0479C38.334 50.72 47.1691 42.4743 54.2786 42.2443V41.7508H52.7983ZM54.7796 44.6421C49.5664 46.7724 49.2792 58.399 56.2451 55.7632C61.1554 53.9052 61.5003 41.8954 54.7796 44.6421Z" fill="black"/>
<path d="M86.8459 47.6722H87.3393L90.3 44.7115C88.4659 44.6719 87.5806 46.1137 86.8459 47.6722Z" fill="black"/>
<path d="M68.0947 32.869L68.0951 32.3754L75.0033 32.8689L75.4963 37.8035H75.0029V33.3625C71.3149 37.7203 71.8587 50.6939 73.5226 56.0609L74.5095 55.074H75.0029C76.1185 56.7933 77.6971 56.4901 79.4904 56.1456C79.638 56.1173 79.787 56.0887 79.9373 56.0609V57.0478C76.1556 57.4011 72.8628 57.1545 69.575 55.074V57.0478H69.0816V35.8297H69.575L71.0557 44.2181H71.5492L72.5357 34.3494L72.0426 34.3492L71.5488 35.8297L68.0947 32.869Z" fill="black"/>
<path fill-rule="evenodd" clip-rule="evenodd" d="M78.457 32.869L78.4574 32.3754C80.1343 32.7213 82.0272 32.8001 83.9304 32.8792C86.5068 32.9862 89.1014 33.094 91.2026 33.8666C100.449 37.2661 106.937 47.3181 102.142 56.0609L96.221 57.2945L87.8324 57.3767L81.9111 53.1002L82.4045 51.6199L81.4177 53.1002H80.9242C80.9242 52.7512 80.9191 52.3912 80.9138 52.0241C80.8717 49.0693 80.8229 45.652 83.3914 43.807C84.1136 43.2882 85.9068 42.7689 87.6944 42.2513C89.9885 41.587 92.2734 40.9253 92.2734 40.2707H92.7669L95.7279 41.7508L89.8066 36.323L89.8062 35.8297L91.7803 36.8164L90.3 34.8426L89.8062 34.8428C88.1931 35.8653 83.7087 35.2863 82.4045 33.8559L78.457 32.869ZM91.2864 44.5406C84.5568 46.6108 85.6103 58.3398 93.2602 56.3384C100.293 54.4983 99.3394 42.0635 91.2864 44.5406Z" fill="black"/>
<path d="M94.741 44.2181L94.741 44.7115L96.7148 45.2049V44.7115L94.741 44.2181Z" fill="black"/>
<path d="M147.046 44.2181L147.539 45.6984H148.033L147.046 44.2181Z" fill="black"/>
<path d="M58.7196 44.7115L59.7065 51.6197H60.2C60.5187 49.0857 61.1114 46.3501 58.7196 44.7115Z" fill="black"/>
<path d="M174.679 44.7115L174.679 45.2049H176.159L174.679 44.7115ZM11.8425 45.2049L12.8294 46.1918V45.2049H11.8425Z" fill="black"/>
<path d="M60.6934 45.2049V46.6853H61.1868L60.6934 45.2049Z" fill="black"/>
<path d="M66.1213 45.2049L65.1344 51.6197H65.6278L66.1213 45.2049Z" fill="black"/>
<path d="M157.902 45.2049L157.408 46.1918H158.395L157.902 45.2049ZM173.198 45.2049V45.6984H174.679L173.198 45.2049ZM176.159 45.2049V45.6984H178.626L176.159 45.2049Z" fill="black"/>
<path d="M8.88186 45.6984V63.4623L12.336 64.4492L12.8294 62.9689L14.8032 63.4623V62.9689L10.3622 61.982L9.86875 45.6984H8.88186Z" fill="black"/>
<path d="M34.5409 46.6853V47.1787L39.4753 46.1918L34.5409 46.6853Z" fill="black"/>
<path d="M61.1868 45.6984V48.6591H61.6803L61.1868 45.6984ZM70.5623 45.6984L71.5492 47.1787V45.6984H70.5623Z" fill="black"/>
<path d="M148.033 45.6984V47.1787H148.526L148.033 45.6984Z" fill="black"/>
<path d="M50.3313 46.1918L50.3311 47.1787H51.318V46.1918H50.3313Z" fill="black"/>
<path d="M74.0164 46.1918V52.6066H74.5098L74.0164 46.1918Z" fill="black"/>
<path d="M97.7016 46.1918L97.2082 53.5935H97.7016C98.7127 51.197 99.2432 48.4484 97.7016 46.1918Z" fill="black"/>
<path d="M113.985 46.1918L112.505 51.6197H112.998L113.985 46.1918Z" fill="black"/>
<path d="M123.854 46.1918V49.6459H124.348L123.854 46.1918Z" fill="black"/>
<path d="M129.282 46.1918V51.1263H129.775L129.282 46.1918Z" fill="black"/>
<path d="M10.8556 46.6853V48.6591H11.3491L10.8556 46.6853ZM13.3229 46.6853V48.1656H13.8163L13.3229 46.6853Z" fill="black"/>
<path d="M69.5754 46.6853V49.6459H70.0688L69.5754 46.6853ZM138.657 46.6853L137.671 51.6197H138.164L138.657 46.6853ZM25.6589 47.6722V48.1656L28.6196 47.6722H25.6589Z" fill="black"/>
<path d="M34.0475 47.1787L30.5934 49.1525V49.6459C32.3913 49.7027 34.0915 49.2195 34.0475 47.1787Z" fill="black"/>
<path d="M36.5147 47.1787V47.6722H38.4885L36.5147 47.1787Z" fill="black"/>
<path d="M108.557 47.1787L107.077 51.1263H107.571L108.557 47.1787ZM113.492 47.1787V54.5804H113.985L113.492 47.1787Z" fill="black"/>
<path d="M153.461 47.1787V48.6591H153.954L153.461 47.1787ZM165.303 47.6722V48.1656H176.653C173.783 45.9915 168.715 47.6699 165.303 47.6722Z" fill="black"/>
<path d="M35.0344 47.6722V48.1656H36.5147L35.0344 47.6722Z" fill="black"/>
<path d="M163.33 48.1656V48.6591L165.303 48.6591L163.33 48.1656Z" fill="black"/>
<path d="M17.7638 48.1656V48.6591H25.6589L17.7638 48.1656Z" fill="black"/>
<path d="M46.3834 48.1656V50.6328H46.8769L46.3834 48.1656Z" fill="black"/>
<path d="M86.3525 48.1656V49.6459H86.8459L86.3525 48.1656ZM137.671 48.1656V50.6328H138.164L137.671 48.1656Z" fill="black"/>
<path d="M65.6278 48.6591V55.5673H66.1213L65.6278 48.6591Z" fill="black"/>
<path d="M70.5623 48.6591L71.5492 49.6459V48.6591H70.5623Z" fill="black"/>
<path d="M80.4311 48.6591V53.1L80.9242 53.1002L80.4311 48.6591Z" fill="black"/>
<path d="M151.98 48.6591L151.487 49.6459H152.474L151.98 48.6591Z" fill="black"/>
<path d="M165.303 48.6591C164.36 50.1003 163.48 49.9867 161.849 49.6459C162.428 52.3471 172.315 50.443 175.172 51.6197C173.052 48.035 168.481 50.0972 165.303 48.6591Z" fill="black"/>
<path d="M10.8556 49.1525V50.6328H11.3491L10.8556 49.1525Z" fill="black"/>
<path d="M33.554 49.1525L36.5147 50.6328V50.1394L33.554 49.1525ZM50.3311 49.1525L50.8245 54.0869H51.318L50.3311 49.1525ZM178.133 49.1525L178.626 54.0869L179.12 54.0869L178.133 49.1525ZM13.3229 49.6459V51.1263H13.8163L13.3229 49.6459Z" fill="black"/>
<path d="M14.3097 50.1394L14.8032 61.4886C16.8196 60.0368 15.7052 58.8815 14.8032 57.0476L16.2835 57.541V57.0476L14.8032 56.5541V56.0607H16.777L17.7638 51.6197V51.1263L15.2966 50.1394L28.1261 51.6197V50.1394H14.3097ZM30.5934 49.6459L30.5934 50.1394L33.0606 49.6459H30.5934Z" fill="black"/>
<path d="M42.9294 49.6459V53.1H43.4229L42.9294 49.6459ZM123.361 49.6459L122.867 53.1H123.361V49.6459Z" fill="black"/>
<path d="M150.5 49.6459L145.072 53.1V54.0869C148.05 54.2197 150.261 52.2528 151.487 49.6459L150.5 49.6459Z" fill="black"/>
<path d="M15.2966 50.1394L18.7507 51.1263V50.6328L15.2966 50.1394Z" fill="black"/>
<path d="M101.649 50.6328L100.662 54.0869L101.649 55.0738H102.143L104.116 50.1394L101.649 50.6328Z" fill="black"/>
<path d="M17.7638 51.1263V51.6197L27.1393 51.6197L17.7638 51.1263Z" fill="black"/>
<path d="M27.6327 50.6328L31.0868 54.5804L33.0606 54.0869V53.5935L27.6327 50.6328Z" fill="black"/>
<path d="M85.859 50.6328L86.3525 53.5935H86.8459L85.859 50.6328Z" fill="black"/>
<path d="M177.639 50.6328L170.238 58.0345V58.5279C174.408 58.4299 179.69 55.5319 177.639 50.6328Z" fill="black"/>
<path d="M49.8377 51.1263V53.1H50.3311L49.8377 51.1263Z" fill="black"/>
<path d="M69.5754 51.1263V54.0869H70.0688L69.5754 51.1263Z" fill="black"/>
<path d="M16.777 51.6197V55.0738H17.2704L16.777 51.6197Z" fill="black"/>
<path d="M17.2706 51.6197C17.1416 57.8694 15.173 62.9154 23.1919 63.4623V62.9689C21.8371 62.5645 20.0795 62.6397 18.8636 61.8937C15.495 59.8267 18.4991 54.575 17.2706 51.6197Z" fill="black"/>
<path fill-rule="evenodd" clip-rule="evenodd" d="M0 23.0003C0.920685 25.3677 3.02066 26.9098 5.06975 28.4146C8.08166 30.6264 10.9835 32.7571 9.86875 37.3099L8.88198 33.3626H8.38854V56.061C8.38854 56.5629 8.35435 57.121 8.3186 57.7046C8.17644 60.0255 8.00951 62.7506 9.86887 63.9561V63.4626C8.22185 60.2928 8.50978 54.4261 8.74171 49.7006C8.81468 48.2138 8.88199 46.8397 8.88186 45.6984H9.86875C9.87101 46.7763 9.81916 47.9492 9.76526 49.1655C9.60269 52.8342 9.42251 56.9001 10.6597 59.964C12.1118 63.5602 24.8287 68.1447 28.6193 67.4528C29.9553 67.2089 31.0753 66.2853 32.201 65.3569C33.1038 64.6124 34.0102 63.8649 35.0345 63.4626L34.541 67.4102C43.3544 62.1635 43.1308 52.9293 33.0606 49.6459L30.1 49.6462C30.4971 49.3972 30.9065 49.1438 31.3245 48.885C36.3388 45.781 42.5803 41.917 43.4229 35.8295L43.6376 35.8298C43.7403 36.0875 43.8333 36.3544 43.9165 36.6308L43.9163 40.2705H44.4098C44.4089 38.9032 44.2369 37.6964 43.9165 36.6308V35.8298H43.6376C40.7352 28.5443 30.1786 28.6083 21.0193 28.6638C17.3884 28.6858 13.9771 28.7065 11.3492 28.2675C7.87269 27.6867 4.693 25.7902 1.65582 23.9787C1.09941 23.6468 0.547789 23.3178 0 23.0003ZM17.7638 48.1656C18.4251 48.1656 19.0971 48.1829 19.7735 48.2C21.7461 48.2497 23.7575 48.3004 25.6591 47.9348C38.7142 45.4249 33.2407 26.7821 22.2263 36.484C20.8824 37.6677 19.7604 39.1735 18.9382 40.7643C17.7666 43.0309 17.7653 45.5487 17.764 48.0352L17.7638 48.1656ZM17.4536 54.5125C17.602 53.492 17.7456 52.5043 17.7638 51.6197C18.5075 51.6197 19.2592 51.6023 20.0138 51.5846C21.737 51.544 23.4752 51.503 25.1655 51.6718C31.6282 52.3172 32.9307 60.5514 27.132 63.4471C25.6956 64.1644 24.4009 63.6788 23.0718 63.1803C22.6245 63.0125 22.1732 62.8432 21.7114 62.7179C21.3409 62.6174 20.9503 62.555 20.5608 62.4928C19.3827 62.3047 18.2136 62.118 17.6367 60.8828C16.7906 59.0715 17.1333 56.7149 17.4536 54.5125Z" fill="black"/>
<path d="M26.6458 51.6197V52.1132L31.0868 55.0738L26.6458 51.6197Z" fill="black"/>
<path d="M81.418 51.6197C81.8991 60.4086 97.7451 61.9534 101.649 55.0738C97.5156 56.9859 92.3271 58.7763 87.8333 57.0228C85.5087 56.1159 84.2555 53.2195 81.9111 53.1002L82.4045 51.6199L81.418 51.6197Z" fill="black"/>
<path d="M109.544 51.6197L109.051 54.0869H109.544V51.6197Z" fill="black"/>
<path d="M74.5098 52.1132L74.5095 55.074H75.0029L74.5098 52.1132Z" fill="black"/>
<path d="M112.505 52.1132V53.5935H112.998L112.505 52.1132ZM129.282 52.1132V59.0214L129.775 59.0214L129.282 52.1132Z" fill="black"/>
<path d="M137.671 52.6061V53.1L142.112 52.6066L137.671 52.6061Z" fill="black"/>
<path d="M33.554 52.6066V53.1L35.0344 53.5935L33.554 52.6066ZM7.89498 53.1V62.9689H8.38842L7.89498 53.1Z" fill="black"/>
<path d="M144.085 53.1L142.605 53.5935V54.0869L144.579 53.5935L144.085 53.1ZM161.849 53.1V53.5935H164.316L161.849 53.1Z" fill="black"/>
<path d="M31.5803 53.5935L32.0737 59.5148L30.0999 62.4755C32.3824 61.4247 33.9061 60.7808 33.554 58.0345C35.4219 57.7228 34.0256 54.8642 33.554 53.5935H31.5803Z" fill="black"/>
<path d="M157.408 53.5935V54.0869L161.849 55.5673L161.849 53.5935H157.408Z" fill="black"/>
<path d="M73.5229 54.0869V55.5673H74.0164L73.5229 54.0869Z" fill="black"/>
<path d="M139.644 54.0869V54.5804H141.618L139.644 54.0869Z" fill="black"/>
<path d="M162.343 54.5804V56.0607L163.823 56.5541L164.316 54.0869L162.343 54.5804Z" fill="black"/>
<path d="M107.077 56.5541L104.116 59.5148L101.649 61.4886L92.2294 64.6152L79.4444 65.4361V65.9296L97.7016 64.4492L98.6885 62.9689L98.1951 63.9558H98.6885C101.031 62.9318 103.775 61.5582 104.61 59.0214C106.268 58.7341 106.79 58.2122 107.077 56.5541C109.838 58.0216 114.423 60.856 116.946 57.541C114.016 58.212 107.759 53.2625 107.077 56.5541Z" fill="black"/>
<path d="M113.492 54.5804L115.466 56.5541V56.0607L113.492 54.5804Z" fill="black"/>
<path d="M137.177 54.5804L137.177 55.0738H139.644L137.177 54.5804Z" fill="black"/>
<path d="M31.0868 55.0738L30.0999 61.4886H30.5934L32.0737 59.5148L31.0868 55.0738Z" fill="black"/>
<path d="M69.575 55.074L70.0688 59.0214L71.5492 58.0345C73.3705 59.5382 78.3642 58.6543 79.9373 57.0478L79.4442 56.5541C76.5329 57.6628 72.8568 57.2649 70.5623 55.0738L69.575 55.074Z" fill="black"/>
<path d="M137.177 55.0738V55.5673L142.112 56.0607L137.177 55.0738Z" fill="black"/>
<path d="M142.605 55.0738V55.5673L145.566 56.0607L142.605 55.0738Z" fill="black"/>
<path d="M14.8032 56.0607V56.5541L16.2835 57.0476V55.5673L14.8032 56.0607Z" fill="black"/>
<path d="M79.4442 55.5673L78.9508 59.0214C80.0931 57.9031 80.7874 56.7651 79.4442 55.5673Z" fill="black"/>
<path d="M158.889 56.5541C160.121 58.0306 160.943 58.4544 162.836 58.0345C161.603 56.4537 160.831 55.9151 158.889 56.5541Z" fill="black"/>
<path d="M53.2918 56.0607V56.5541H55.759L53.2918 56.0607Z" fill="black"/>
<path d="M115.466 56.0607V56.5541L117.439 56.5541L115.466 56.0607Z" fill="black"/>
<path d="M122.374 56.0607V56.5541H123.854L122.374 56.0607Z" fill="black"/>
<path d="M143.098 56.0607V56.5541L145.566 57.541V57.0476L143.098 56.0607Z" fill="black"/>
<path d="M83.3918 56.5541L84.3787 57.541V56.5541H83.3918Z" fill="black"/>
<path d="M90.7934 56.5541V57.0476H93.7541L90.7934 56.5541Z" fill="black"/>
<path d="M102.636 56.5541L102.143 57.541H103.13L102.636 56.5541Z" fill="black"/>
<path d="M117.933 58.0345V58.5279H124.348L123.854 56.5541L117.933 58.0345Z" fill="black"/>
<path d="M164.81 56.5541V57.0476L169.744 57.0476L164.81 56.5541Z" fill="black"/>
<path d="M41.4491 57.0476V59.5148H41.9426L41.4491 57.0476Z" fill="black"/>
<path d="M59.7065 57.0476V57.541L60.6934 59.5148L66.6147 59.0214V57.0476H66.1213V58.5279C64.5349 57.6319 62.1866 56.6592 61.6803 59.0214H61.1868V57.0476L59.7065 57.0476Z" fill="black"/>
<path d="M69.0816 57.0478L69.5754 59.5148H70.0688L69.0816 57.0478Z" fill="black"/>
<path d="M99.182 57.0476L98.1951 57.541V58.0345L99.182 57.0476Z" fill="black"/>
<path d="M137.671 57.0476V59.5148H138.164L137.671 57.0476ZM152.967 57.0476V57.541L155.928 58.0345V57.541L152.967 57.0476Z" fill="black"/>
<path d="M46.3836 57.541V58.0345L49.3442 59.5148V59.0214L46.3836 57.541Z" fill="black"/>
<path d="M55.759 57.541L55.2655 58.5279H56.2524L55.759 57.541Z" fill="black"/>
<path d="M59.2131 57.541V58.0345L60.2 59.0214H60.6934L59.2131 57.541Z" fill="black"/>
<path d="M69.5754 57.541V59.0214H70.0688L69.5754 57.541Z" fill="black"/>
<path d="M71.5492 57.541V58.0345H73.0295L71.5492 57.541Z" fill="black"/>
<path d="M107.077 57.541L107.077 58.0345L111.518 59.5148L107.077 57.541Z" fill="black"/>
<path d="M145.072 57.541V58.0345L147.046 58.5279V58.0345L145.072 57.541Z" fill="black"/>
<path d="M51.8114 58.5279V59.0214L54.2786 58.0345L51.8114 58.5279Z" fill="black"/>
<path d="M71.0557 58.0345L70.5623 59.0214H71.5492L71.0557 58.0345Z" fill="black"/>
<path d="M72.0426 58.5279V59.0214L74.0164 58.5279H72.0426Z" fill="black"/>
<path d="M97.7016 58.0345V58.5279H99.182L97.7016 58.0345Z" fill="black"/>
<path d="M124.348 58.5279L124.348 59.0214H128.295L124.348 58.5279Z" fill="black"/>
<path d="M147.046 58.0345V58.5279L150.007 59.0214V58.5279L147.046 58.0345Z" fill="black"/>
<path d="M55.2655 58.5279L55.2655 59.0214H56.7459L55.2655 58.5279Z" fill="black"/>
<path d="M56.7459 58.5279L56.7459 59.0214H58.7196L56.7459 58.5279Z" fill="black"/>
<path d="M74.0164 58.5279V59.0214L78.9508 59.0214L74.0164 58.5279Z" fill="black"/>
<path d="M92.2738 58.5279V59.0214H94.2476L92.2738 58.5279Z" fill="black"/>
<path d="M95.7279 58.5279V59.0214H97.2082L95.7279 58.5279Z" fill="black"/>
<path d="M125.334 58.5279V59.0214H126.815L125.334 58.5279ZM157.408 59.0214V59.5148H159.382L157.408 59.0214Z" fill="black"/>
<path d="M162.836 58.5279V59.0214H164.316L162.836 58.5279Z" fill="black"/>
<path d="M38.4885 59.5148V60.0082L40.9557 59.0214L38.4885 59.5148Z" fill="black"/>
<path d="M50.8245 59.0214V59.5148H53.7852L50.8245 59.0214Z" fill="black"/>
<path d="M86.8459 59.0214V59.5148H95.2344L86.8459 59.0214Z" fill="black"/>
<path d="M111.518 59.0214V59.5148H114.972L111.518 59.0214Z" fill="black"/>
<path d="M150.007 59.0214V59.5148H151.487L150.007 59.0214ZM169.251 59.0214V59.5148H170.731L169.251 59.0214ZM49.3442 59.5148L49.3442 60.0082H50.8245L49.3442 59.5148ZM96.7148 60.9951V61.4886L99.6754 59.5148L96.7148 60.9951Z" fill="black"/>
<path d="M61.6803 61.4886V61.982H65.1344L61.6803 61.4886ZM94.2476 61.982V62.4755L96.2213 61.982H94.2476Z" fill="black"/>
<path d="M14.3097 61.982V62.4755H15.7901L14.3097 61.982Z" fill="black"/>
<path d="M31.0868 61.982V62.9689L32.0737 61.982H31.0868Z" fill="black"/>
<path d="M47.8639 62.9689V63.4623L61.1868 62.4755C57.6197 60.9786 51.4542 61.7535 47.8639 62.9689ZM65.1344 61.982L65.1344 62.4755L72.0426 62.9689L65.1344 61.982ZM91.7803 62.9689V63.4623L94.2476 62.9689H91.7803Z" fill="black"/>
<path d="M12.336 64.4492L14.8032 64.9427V64.4492H13.8163V63.9558H15.7901C14.3454 63.2766 13.3651 63.178 12.336 64.4492Z" fill="black"/>
<path d="M100.169 62.9689L99.182 63.4623V63.9558L100.169 62.9689Z" fill="black"/>
<path d="M13.8163 63.9558V64.4492H14.8032V64.9427L12.8294 64.4492V64.9427L30.0999 70.864L30.5934 68.8902C33.6607 68.7849 36.1097 66.5408 35.0345 63.4626L31.5803 66.423L13.8163 63.9558ZM19.7376 63.4623V63.9558H21.2179L19.7376 63.4623Z" fill="black"/>
<path d="M62.6672 63.4623V63.9558H64.1475L62.6672 63.4623ZM76.4836 63.4623V63.9558H80.4311L76.4836 63.4623ZM85.859 63.4623V63.9558H89.3131L85.859 63.4623Z" fill="black"/>
<path d="M24.672 63.9558V64.4492H26.1524L24.672 63.9558Z" fill="black"/>
<path d="M58.2262 63.9558V64.4492H60.2L58.2262 63.9558ZM61.1868 63.9558V64.4492H64.1475L61.1868 63.9558Z" fill="black"/>
<path d="M11.3491 64.4492V64.9427L14.3097 65.9296V65.4361L11.3491 64.4492Z" fill="black"/>
<path d="M43.9164 74.3181L48.3573 69.3837L52.7983 67.9033C52.976 66.5747 53.5089 66.7289 54.7721 66.9165L57.2393 64.9427C52.6409 63.0714 43.4077 69.3357 43.9164 74.3181Z" fill="black"/>
<path d="M54.7721 66.423L67.1082 64.9427C63.8628 63.5808 57.2215 63.7726 54.7721 66.423Z" fill="black"/>
<path d="M58.2262 64.9427V65.4361L78.4575 65.9296C73.3612 62.8769 63.9827 64.9427 58.2262 64.9427Z" fill="black"/>
<path d="M37.0081 64.9427V65.9296L37.995 64.9427H37.0081Z" fill="black"/>
<path d="M95.7279 64.9427V65.4361H97.2082L95.7279 64.9427Z" fill="black"/>
<path d="M14.3097 65.4361V65.9296L16.2835 66.423V65.9296L14.3097 65.4361Z" fill="black"/>
<path d="M55.759 65.9296V66.423L57.7327 65.9296H55.759Z" fill="black"/>
<path d="M56.7459 65.9296V66.423L63.1606 65.9296H56.7459Z" fill="black"/>
<path d="M63.1606 65.4361L63.1606 65.9296H66.6147L63.1606 65.4361Z" fill="black"/>
<path d="M66.6147 65.4361L66.6147 65.9296H69.0819L66.6147 65.4361ZM91.7803 65.4361V65.9296H93.7541L91.7803 65.4361Z" fill="black"/>
<path d="M93.7541 65.4361L93.7541 65.9296H95.7279L93.7541 65.4361ZM116.946 65.4361V65.9296L123.361 66.423L116.946 65.4361Z" fill="black"/>
<path d="M68.0951 65.9296V66.423H72.5362L68.0951 65.9296ZM90.3001 65.9296V66.423H93.2607L90.3001 65.9296ZM105.103 71.8509C105.182 74.2766 105.783 75.3667 108.064 76.2919L107.571 79.2525H108.064L105.597 72.3443L115.466 68.3968L113.985 66.9165V66.423H116.452C112.072 64.6396 110.02 71.8336 105.103 71.8509Z" fill="black"/>
<path d="M113.985 66.423V66.9165L115.466 68.3968L105.597 72.3443L106.09 75.305H106.584C106.584 73.607 109.604 74.3181 111.025 74.3181L109.544 80.2394H109.051L108.557 76.7853H108.064V85.6673H108.557L109.544 84.6804C110.976 88.2954 113.793 89.0459 117.439 89.1214V88.628H116.453V88.1345H122.867L123.361 85.6673C121.393 86.1282 119.527 87.7062 117.441 87.3509C112.279 86.4716 112.011 79.7233 114.479 76.2919L112.998 73.8247C114.571 74.2214 120.076 75.2083 120.4 73.3312L122.867 72.8378L121.88 75.305H122.374L123.854 71.3574L115.959 72.3443L122.867 66.423H113.985Z" fill="black"/>
<path d="M17.2704 66.423V66.9165L19.2442 67.4099V66.9165L17.2704 66.423Z" fill="black"/>
<path d="M52.3049 66.9165V67.4099L54.2786 66.9165H52.3049Z" fill="black"/>
<path d="M18.2573 67.4099V67.9033L22.2048 68.8902V68.3968L18.2573 67.4099Z" fill="black"/>
<path d="M22.2048 68.3968V68.8902L29.113 70.864L22.2048 68.3968Z" fill="black"/>
<path d="M39.4755 68.8902L38.982 70.864H39.4755L40.4624 68.8902H39.4755Z" fill="black"/>
<path d="M49.3442 68.8902L48.3573 69.3837L48.3573 69.8771L49.3442 68.8902Z" fill="black"/>
<path d="M26.6458 70.3706V70.864H28.1261L26.6458 70.3706ZM28.6196 70.864V71.3574H30.5934L28.6196 70.864ZM115.959 70.864C116.38 72.8314 118.174 72.3443 119.907 72.3443V71.8509L115.959 70.864ZM136.19 70.864V71.3574H140.631L136.19 70.864Z" fill="black"/>
<path d="M114.972 71.3574L113.492 72.3443V72.8378H115.466L114.972 71.3574Z" fill="black"/>
<path d="M126.815 75.7984L132.243 72.8378V73.3312L128.295 76.7853L134.71 71.8509C131.847 71.0071 128.541 73.7097 126.815 75.7984Z" fill="black"/>
<path d="M81.418 76.7853L83.3918 77.2788L86.8459 73.3312V72.8378L90.7934 72.3443C87.251 70.8724 83.417 74.0768 81.418 76.7853Z" fill="black"/>
<path d="M93.7541 71.8509V72.3443H104.61L93.7541 71.8509ZM135.203 71.8509V72.3443H136.684L135.203 71.8509ZM37.5016 72.3443L36.5147 76.2919H37.0081L37.5016 72.3443ZM123.361 72.3443V73.8247H123.854L123.361 72.3443Z" fill="black"/>
<path d="M122.374 72.8378L120.893 73.8247V74.3181L122.374 72.8378ZM135.697 73.8247L140.138 73.3312C138.614 72.6917 136.835 72.5215 135.697 73.8247Z" fill="black"/>
<path d="M84.3787 74.3181V74.8115L86.8459 73.8247L84.3787 74.3181Z" fill="black"/>
<path d="M91.7803 73.3312V73.8247H93.2607L91.7803 73.3312Z" fill="black"/>
<path d="M138.657 73.3312V73.8247L141.125 74.3181L138.657 73.3312Z" fill="black"/>
<path d="M44.9032 73.8247L44.9033 76.7853H45.3967L44.9032 73.8247Z" fill="black"/>
<path d="M85.8588 84.6804L85.3654 83.2001L89.3129 76.2919L87.8326 77.7722H87.3392L86.3523 77.2788L90.7933 75.305V74.3181L90.2998 73.8247C85.7848 74.925 85.6896 77.3715 85.2968 81.2263C85.1295 82.867 83.6719 84.2097 85.8588 84.6804Z" fill="black"/>
<path d="M90.2998 73.8247L90.3 74.3181L96.7148 75.305C95.2502 73.3811 92.5188 73.8247 90.2998 73.8247Z" fill="black"/>
<path d="M96.7148 73.8247V74.3181H98.1951L96.7148 73.8247Z" fill="black"/>
<path d="M112.998 73.8247L113.492 75.7984L121.88 75.305V74.8115L112.998 73.8247Z" fill="black"/>
<path fill-rule="evenodd" clip-rule="evenodd" d="M131.927 73.6072L132.243 73.3312V72.8378C125.434 74.856 123.987 80.0998 126.321 86.1608H126.815L125.828 82.7067C126.529 83.3295 127.107 84.0612 127.686 84.7923C128.464 85.7759 129.241 86.7584 130.313 87.4733C134.879 90.516 139.856 89.0736 144.485 87.732C145.183 87.5297 145.873 87.3297 146.552 87.1477L149.513 83.2001C148.611 83.5991 147.754 83.9979 146.933 84.3803C141.042 87.1225 136.952 89.0263 130.762 84.187L133.229 87.6411C130.679 86.5091 127.198 83.1473 129.251 80.0041C129.915 78.9886 131.533 79.1086 132.814 79.2035C133.147 79.2282 133.458 79.2513 133.723 79.2521C134.272 79.2538 135.085 79.3093 136.045 79.3748C139.759 79.6282 145.673 80.0316 146.95 78.0515C148.88 75.0598 144.044 71.8455 141.618 71.4631C137.652 70.8375 134.671 71.6983 131.927 73.6072ZM129.775 77.2788V76.7853C133.197 74.9616 139.531 71.7808 141.125 77.2788H129.775Z" fill="black"/>
<path d="M139.644 73.8247V74.3181L142.112 77.2788L143.592 76.7853L142.112 73.8247H139.644Z" fill="black"/>
<path d="M91.7803 74.3181V74.8115H94.2476L91.7803 74.3181ZM100.662 77.2788L103.623 74.3181C101.713 74.7089 100.753 75.2616 100.662 77.2788Z" fill="black"/>
<path d="M106.09 74.3181V74.8115C108.361 76.2267 108.457 77.7806 109.051 80.2394H109.544C109.826 76.6333 109.738 75.5216 106.09 74.3181Z" fill="black"/>
<path d="M106.584 74.3181V74.8115C108.233 75.1727 109.386 75.7136 110.531 74.3181H106.584Z" fill="black"/>
<path d="M113.985 74.3181V74.8115H122.374L113.985 74.3181Z" fill="black"/>
<path d="M43.9164 74.8115L43.9163 77.2788H44.4098L43.9164 74.8115Z" fill="black"/>
<path d="M57.2393 80.2394V80.7329L62.6673 78.7591L62.1738 76.2919L70.5623 75.7984C65.0841 72.0557 61.2633 77.4816 57.2393 80.2394Z" fill="black"/>
<path d="M88.8197 77.2788C92.0369 75.4427 93.5187 75.3854 96.7148 77.2788C94.3694 74.3196 91.1971 74.3546 88.8197 77.2788Z" fill="black"/>
<path d="M94.741 74.8115V75.305L98.1951 78.2656L97.2082 74.8115H94.741Z" fill="black"/>
<path d="M140.138 74.8115L141.125 77.2788H129.775C131.882 79.6902 138.622 77.7727 141.618 77.7722L140.138 74.8115Z" fill="black"/>
<path d="M144.085 74.8115L143.592 78.2656V78.7591C145.685 78.3106 145.253 76.1468 144.085 74.8115Z" fill="black"/>
<path d="M86.3523 77.2788L87.3392 77.7722H87.8326L89.3129 76.2919C87.8627 75.3302 87.1586 75.8251 86.3523 77.2788Z" fill="black"/>
<path fill-rule="evenodd" clip-rule="evenodd" d="M86.8459 73.3312V72.8378L104.61 72.3443L104.116 74.3181C102.2 74.6911 100.892 75.2226 100.662 77.2788L102.143 76.7853L101.649 82.7066H101.156L100.662 81.7197L100.169 87.1476L97.7016 86.1607C92.672 88.252 84.0737 90.7799 81.418 83.6935H80.9246V85.1739H80.4311L81.418 76.7853L83.3918 77.2788L87.8328 73.8247L86.8459 73.3312ZM91.7825 75.5952C86.5081 76.9611 85.0869 88.7164 91.78 86.8181C97.3051 85.2509 99.04 73.7157 91.7825 75.5952Z" fill="black"/>
<path d="M114.479 75.305V75.7984H122.374L114.479 75.305ZM131.256 75.305V75.7984H132.736L131.256 75.305Z" fill="black"/>
<path d="M44.4099 76.7853L44.4098 84.187H44.9032L44.4099 76.7853ZM113.492 76.7853V85.1739H113.985L113.492 76.7853ZM147.539 76.7853V78.2656H148.033L147.539 76.7853ZM65.1344 77.2788V77.7722H68.5885L65.1344 77.2788Z" fill="black"/>
<path d="M88.3262 77.2788L86.8459 80.7329H87.3393L88.3262 77.2788Z" fill="black"/>
<path d="M69.0819 77.7722V78.2656L72.0426 79.746L69.0819 77.7722Z" fill="black"/>
<path d="M147.046 77.7722L138.164 79.746V80.2394C140.232 80.2394 148.271 81.3867 147.046 77.7722Z" fill="black"/>
<path d="M101.649 78.2656V83.6935H102.143L101.649 78.2656Z" fill="black"/>
<path d="M147.539 78.2656C145.905 81.0645 142.003 80.2394 139.151 80.2394V80.7329C141.233 80.7329 148.297 81.7489 147.539 78.2656Z" fill="black"/>
<path d="M38.9819 78.7591L38.4885 82.2132L41.4491 81.7197V81.2263L39.4753 81.7197L38.9819 78.7591Z" fill="black"/>
<path d="M58.7196 82.2132C63.9092 80.5562 67.7103 81.9556 70.0689 87.1476L72.0427 86.1607C71.571 83.0145 70.2558 79.6132 66.6147 79.746L67.1082 78.7591C63.7597 79.4894 60.5296 78.5898 58.7196 82.2132Z" fill="black"/>
<path d="M63.6541 78.7591V79.2525H66.6147L63.6541 78.7591Z" fill="black"/>
<path d="M79.9377 79.2525V85.1739H80.4311L79.9377 79.2525ZM96.7148 79.2525V81.7198H97.2082L96.7148 79.2525ZM124.348 79.2525V82.2132H124.841L124.348 79.2525Z" fill="black"/>
<path d="M128.789 79.2525C128.789 83.1947 128.946 86.3572 133.229 87.6411C131.371 84.792 130.095 82.7525 130.269 79.2525H128.789Z" fill="black"/>
<path d="M130.269 79.2525L130.269 79.746H138.657L130.269 79.2525Z" fill="black"/>
<path d="M129.775 79.746L130.269 83.6935H130.762V80.2394H138.164L129.775 79.746Z" fill="black"/>
<path d="M107.077 80.2394V83.2001H107.571L107.077 80.2394ZM130.762 80.2394L131.256 84.6804H131.749L131.256 80.7329H139.151L130.762 80.2394ZM35.0344 80.7329V84.187H35.5278L35.0344 80.7329Z" fill="black"/>
<path d="M60.6934 81.2263V81.7197H64.641L60.6934 81.2263Z" fill="black"/>
<path d="M71.0557 80.7329L71.5492 82.7066H72.0426L71.0557 80.7329Z" fill="black"/>
<path d="M139.151 80.7329V81.2263H146.553L139.151 80.7329Z" fill="black"/>
<path d="M36.0214 81.7197C36.2035 90.5425 40.743 94.3859 48.3573 97.5099L46.877 98.0034V98.4968L51.318 98.9903V98.4968L49.8377 97.5099L55.2655 98.4968V98.0034C49.8717 97.277 44.1734 95.1814 40.9069 90.5825C38.9279 87.796 38.5028 84.0759 36.0214 81.7197Z" fill="black"/>
<path d="M100.662 81.7197L100.169 87.1476L97.7016 86.1607L92.2738 89.1214C88.1516 87.8917 83.8093 87.908 81.418 83.6935H80.9246C81.6647 90.3407 93.6633 92.7364 96.7148 87.1476H97.2082V90.1083H102.636L100.662 81.7197Z" fill="black"/>
<path d="M65.6278 82.2132V82.7066L68.0951 85.1739H68.5885L65.6278 82.2132Z" fill="black"/>
<path d="M77.4705 82.2132V83.6935H77.9639L77.4705 82.2132ZM148.526 82.7066V83.2001L150.007 83.6935V82.2132L148.526 82.7066Z" fill="black"/>
<path d="M86.8459 82.7066V84.6804H87.3393L86.8459 82.7066ZM124.841 82.7066V84.187H125.334L124.841 82.7066Z" fill="black"/>
<path d="M125.828 82.7067L128.789 88.628L129.282 87.1476L131.256 90.1083C135.488 90.0964 144.28 91.0981 146.059 86.6542C139.556 90.8795 135.525 87.8463 128.789 87.1476L126.815 82.7066L125.828 82.7067Z" fill="black"/>
<path d="M97.2082 83.2001V84.187L98.1951 83.2001H97.2082ZM55.2655 83.6935V84.6804H56.2524L55.2655 83.6935Z" fill="black"/>
<path d="M72.536 83.6935L73.0295 86.6542H73.5229L72.536 83.6935ZM77.9639 83.6935L77.964 89.6148H78.4574L77.9639 83.6935Z" fill="black"/>
<path d="M101.649 83.6935V87.1476H102.143L101.649 83.6935Z" fill="black"/>
<path d="M44.9032 84.187L45.3967 87.1476H45.8901L44.9032 84.187Z" fill="black"/>
<path d="M76.977 84.187L65.6278 98.0034L66.6147 96.5231L61.1868 98.0034V98.4968L63.1606 99.4837C68.9921 97.958 72.6757 95.0649 76.977 91.0952L76.4836 89.6148L77.4705 90.1083L76.4836 88.628L76.977 84.187Z" fill="black"/>
<path d="M107.57 84.187V85.6673L108.064 85.6673L107.57 84.187ZM144.579 85.1739V85.6673L147.539 84.6804L144.579 85.1739Z" fill="black"/>
<path d="M108.557 84.6804C109.126 88.2505 111.037 89.2907 114.479 89.1214V88.628C112.005 88.1286 110.787 86.818 109.544 84.6804L108.557 84.6804Z" fill="black"/>
<path d="M121.88 85.1739V85.6673H123.361L121.88 85.1739Z" fill="black"/>
<path d="M123.361 85.6673V87.1476H123.854L123.361 85.6673Z" fill="black"/>
<path d="M113.492 86.6542V87.1476L116.453 88.1345V87.6411L113.492 86.6542Z" fill="black"/>
<path d="M140.138 86.6542V87.1476H141.618L140.138 86.6542Z" fill="black"/>
<path d="M89.3131 87.1476L89.3131 87.6413H91.7803L89.3131 87.1476Z" fill="black"/>
<path d="M96.7148 87.1476L96.2213 88.1348H97.2082L96.7148 87.1476Z" fill="black"/>
<path d="M102.143 87.1476L103.13 90.1085L96.7148 90.602V91.0954L103.623 90.1085L102.143 87.1476ZM116.946 87.1479V87.6413H119.907L116.946 87.1479Z" fill="black"/>
<path d="M129.282 87.1476L128.789 89.1217L131.256 89.6151L129.282 87.1476Z" fill="black"/>
<path d="M134.216 87.1476V87.6413H140.138L134.216 87.1476Z" fill="black"/>
<path d="M121.88 87.6413L120.893 90.1085H121.387L121.88 87.6413Z" fill="black"/>
<path d="M142.605 87.6413V88.6282L143.592 87.6413H142.605Z" fill="black"/>
<path d="M116.453 88.1345V88.628L118.92 89.1214L116.453 88.1345Z" fill="black"/>
<path d="M72.0427 88.628L72.0426 89.6151L73.0295 88.6282L72.0427 88.628Z" fill="black"/>
<path d="M95.7279 88.6282C93.1664 91.2439 87.5875 90.7845 84.3787 89.6151V90.1085C86.4822 91.1206 95.8098 92.0843 95.7279 88.6282Z" fill="black"/>
<path d="M96.7148 88.6282V90.602L101.649 90.602V90.1085L96.7148 88.6282ZM110.038 88.628L110.038 89.1216L113.492 90.1085V89.6151L110.038 88.628Z" fill="black"/>
<path d="M88.3262 89.6148V90.1083L91.7803 89.6148H88.3262Z" fill="black"/>
<path d="M112.012 89.1214V89.6148L120.893 90.1085L112.012 89.1214Z" fill="black"/>
<path d="M46.877 89.6151L47.8639 91.5889H48.3573L46.877 89.6151ZM67.6016 89.6151V91.0954H68.0951L67.6016 89.6151Z" fill="black"/>
<path d="M90.7934 89.6151V90.1085H95.2344L90.7934 89.6151Z" fill="black"/>
<path d="M113.492 89.6151V90.1085H116.946L113.492 89.6151Z" fill="black"/>
<path d="M129.282 89.6148L129.282 90.1085L141.618 90.602V90.1085L129.282 89.6148Z" fill="black"/>
<path d="M129.775 89.6148L129.775 90.1085L131.256 90.1083L129.775 89.6148ZM135.203 89.6151V90.1085H143.592L135.203 89.6151Z" fill="black"/>
<path d="M85.859 90.1083V90.6017H90.3L85.859 90.1083Z" fill="black"/>
<path d="M111.518 90.1085V90.6017H121.387L111.518 90.1085Z" fill="black"/>
<path d="M118.92 90.1083V90.6017H120.893L118.92 90.1083Z" fill="black"/>
<path d="M75.4967 92.5758L73.0295 94.5495V95.043L75.4967 92.5758Z" fill="black"/>
<path d="M40.4622 94.0558V94.5493L48.3573 98.0034L40.4622 94.0558Z" fill="black"/>
<path d="M47.3704 94.0558L48.8508 95.0427V94.5493L47.3704 94.0558Z" fill="black"/>
<path d="M41.4491 95.0427V95.5362L43.4229 96.5231L41.4491 95.0427Z" fill="black"/>
<path d="M53.7852 95.0427V95.5362L56.7459 96.0296V95.5362L53.7852 95.0427ZM60.2 95.5362V96.0296L63.6541 95.5362H60.2Z" fill="black"/>
<path d="M40.9557 95.5362L40.9557 96.0299L42.436 96.5233L40.9557 95.5362Z" fill="black"/>
<path d="M57.2393 96.0296V96.5231H59.7065L57.2393 96.0296Z" fill="black"/>
<path d="M51.318 96.5233V97.0167L55.2655 97.5102L51.318 96.5233ZM63.6542 96.5231V97.0165L65.1344 97.0167L63.6542 96.5231Z" fill="black"/>
<path d="M65.6278 98.0034L66.6147 96.5231C67.1664 97.579 66.7386 97.77 65.6278 98.0034Z" fill="black"/>
<path d="M70.0688 96.5233L66.1213 98.4971V98.9905L70.5623 97.0167L70.0688 96.5233Z" fill="black"/>
<path d="M43.9163 97.0167V97.5102L47.3704 98.9905V98.4971L43.9163 97.0167Z" fill="black"/>
<path d="M60.6934 97.0165V97.5099H63.1606L60.6934 97.0165Z" fill="black"/>
<path d="M49.8377 97.5099C52.2738 100.714 59.559 99.4837 63.1606 99.4837V98.4971L49.8377 97.5099Z" fill="black"/>
<path d="M47.3704 98.4971V98.9905L48.8508 98.9903L47.3704 98.4971Z" fill="black"/>
<path d="M48.8508 98.9903L48.8508 99.4837H50.8245L48.8508 98.9903Z" fill="black"/>
<path d="M50.8245 98.9905V99.4837L53.2918 99.484L50.8245 98.9905Z" fill="black"/>
<path d="M63.6541 98.9905V99.484H65.6278L63.6541 98.9905Z" fill="black"/>
<path d="M54.2786 99.4837V99.9774L63.1606 99.9771L54.2786 99.4837Z" fill="black"/>
<g clip-path="url(#clip0_5637_142543)">
<mask id="mask0_5637_142543" style="mask-type:alpha" maskUnits="userSpaceOnUse" x="8" y="60" width="231" height="60">
<path d="M194.093 61.4233L193.812 62.5474H192.969V62.8284L193.531 62.5474V62.8284C189.876 65.106 187.499 69.4362 183.133 70.6968V70.9778L187.91 68.4487L186.786 69.8538L187.348 69.5728V69.8538C185.47 71.663 184.466 73.1133 184.257 75.7551H183.976V72.945L182.852 72.1019L180.885 72.6639L181.447 71.5399L180.042 73.507C182.086 75.2094 181.033 79.2942 180.723 81.6564C179.9 87.9261 180.604 94.7214 180.604 101.046H180.885L181.728 75.4741H182.009V76.5981H182.29V74.631H183.133L183.414 76.3171L182.571 76.8792V77.1602C183.356 77.2875 183.593 77.4415 183.695 76.5981H183.976L183.695 79.1273H183.414V77.7222H183.133V78.8463C182.034 79.0295 181.812 79.4465 181.728 80.5324C182.802 80.864 182.822 81.7542 182.852 82.7805H183.133V80.5324H183.414L183.695 83.0615H183.976C184.127 81.5513 184.426 79.8132 185.662 78.8463L185.381 87.2767H185.1V86.4337H184.819L184.538 89.5248L183.976 89.2438L185.1 90.0869L183.695 94.8641L184.257 95.7072L180.885 108.072H181.166C183.151 102.926 185.063 97.291 185.614 91.773C186.192 85.9981 185.708 79.956 187.537 74.35C188.843 70.3475 195.008 65.7833 194.093 61.4233Z" fill="#424042"/>
<path d="M151.94 61.7041C153.363 66.7146 157.498 69.982 158.828 74.9118C160.298 80.3598 159.77 86.2238 160.451 91.7727C161.172 97.6389 163.266 103.352 165.148 108.915H165.429C165.429 99.8449 165.758 90.6964 165.141 81.6562C165.003 79.6343 163.518 72.9936 166.834 73.7877L164.024 70.9776V71.2586L165.991 72.9447L162.619 72.6637V72.9447L163.181 73.2257C162.272 74.0249 162.85 75.176 163.462 76.0359L164.305 73.5067H164.586L164.024 76.8789L163.181 76.3169L164.305 76.8789L164.867 89.8056C163.123 88.7361 163.266 84.4495 163.181 82.4992L164.305 81.6562V81.3752C163.133 80.2123 162.69 78.7864 162.619 77.1599H162.338L163.181 93.7398H163.462V92.8968L164.305 93.1778V90.0866H164.586C165.027 92.4634 165.694 97.3514 163.743 99.0791L164.024 98.5171H163.743H163.462L163.743 99.9221L163.181 100.203H162.9C162.574 98 160.763 94.7565 161.776 92.6158C161.161 91.8787 160.926 91.2792 161.776 91.4917V88.4005L161.214 90.6486H160.933L160.652 84.7473H160.933V85.5904H161.214L160.933 83.3423H160.652V84.7473H160.371L159.809 78.003L160.652 77.1599L160.09 77.722H159.809C159.744 76.2416 158.786 69.7709 157.561 70.4156L156.436 68.1674H156.717L157.842 69.5725L155.031 66.2003L157.279 67.8864C156.402 65.8145 154.149 62.3791 151.94 61.7041Z" fill="#424042"/>
<path d="M174.141 65.6387V68.1678H174.422L174.141 65.6387Z" fill="#7C6959"/>
<path d="M155.031 66.2004L156.717 67.6055V67.3245L155.031 66.2004Z" fill="#7C6959"/>
<path d="M156.999 66.7625L156.718 67.0435L159.247 70.1346C159.201 69.0783 158.974 68.0616 157.842 67.8865L156.999 66.7625Z" fill="#7C6959"/>
<path d="M173.579 66.7625L168.239 73.7878H168.52C170.06 71.7724 174.103 69.7555 173.579 66.7625Z" fill="#424042"/>
<path d="M173.86 67.0437L171.612 70.9779L173.017 72.102H173.298C174.391 70.927 174.599 68.5738 173.86 67.0437Z" fill="#A7927C"/>
<path d="M174.422 67.0437L174.141 69.8539C174.95 69.0111 174.89 68.0902 174.422 67.0437Z" fill="#424042"/>
<path d="M156.438 68.1675L157.562 70.4156L158.686 70.1346L156.438 68.1675Z" fill="#7C6959"/>
<path d="M187.91 68.1675L187.629 69.2915L188.753 68.1675H187.91Z" fill="#7C6959"/>
<path d="M158.684 68.449L159.246 70.1351L158.684 69.292H158.403L159.246 70.9781L160.089 70.6971V71.5401H161.213V70.1351L158.684 68.449Z" fill="#A7927C"/>
<path d="M158.965 68.449V68.73L161.775 70.4161V70.1351L158.965 68.449Z" fill="#424042"/>
<path d="M185.662 70.9781L187.349 69.573L186.787 69.854L187.911 68.449C186.645 68.9911 186.079 69.6776 185.662 70.9781Z" fill="#7C6959"/>
<path d="M157.843 69.0105L158.405 69.5725V69.0105H157.843Z" fill="#A19FA1"/>
<path d="M174.141 70.6963L175.546 70.1343V69.8533H174.703V69.5723H175.265C174.417 69.4978 174.123 69.8834 174.141 70.6963Z" fill="#7C6959"/>
<path d="M185.661 69.8535L183.975 70.6966L184.256 72.1016L185.942 71.2586L185.661 69.8535Z" fill="#A7927C"/>
<path d="M161.213 70.4158V72.6639L163.461 72.3829L164.023 71.5398V71.2588L162.899 70.9778V71.8208H162.618L161.213 70.4158Z" fill="#A19FA1"/>
<path d="M173.579 70.4158V71.5398H173.86L173.579 70.4158ZM174.422 70.4158L173.298 71.5398V71.8208L175.265 72.1019L175.546 72.3829L175.265 72.9449L178.075 73.788L176.67 72.9449L175.827 71.2588L174.984 71.5398L174.422 70.4158Z" fill="#A19FA1"/>
<path d="M158.684 70.6968L159.808 77.7222H160.089L160.651 77.1601L159.808 78.0032L160.37 84.7475H160.651V83.3425H160.932L161.213 85.5906H160.932V84.7475H160.651L161.213 87.8387L160.932 90.6488H161.213L161.775 88.4007V91.4919C160.962 91.629 161.453 92.3366 161.775 92.897L161.213 94.021H162.056C161.381 96.1396 162.42 98.134 162.899 100.203H163.18L163.742 99.9223L163.461 98.5173H163.742H164.023L163.742 99.0793H164.023C165.519 97.4812 165.085 92.1899 164.585 90.0868H164.304V93.178L163.461 92.897L163.18 95.9881C162.355 94.213 162.059 92.3133 162.337 90.3678H162.618L162.899 93.178H163.18L162.494 88.6817L162.618 83.3425H162.337V87.2767L162.056 81.3753L161.494 81.6564V78.2842L162.337 80.8133H162.618L162.337 77.1601H162.618C162.65 78.7231 162.919 80.4545 164.304 81.3753V81.6564L163.18 82.4994C163.217 84.301 163.07 89.0839 164.866 89.8058L164.304 76.8791L163.18 76.3171L164.023 76.8791L164.585 73.5069H164.304L163.461 76.0361C162.894 74.9022 162.548 74.1114 163.18 72.9449L160.651 71.5398L159.808 70.9778L158.684 70.6968Z" fill="#7C6959"/>
<path d="M163.181 70.6968L164.024 71.2588V70.9778L163.181 70.6968Z" fill="#7C6959"/>
<path d="M171.893 70.6968L172.174 72.3829L173.017 72.6639L173.298 72.3829L171.893 70.6968Z" fill="#A19FA1"/>
<path d="M171.05 71.2588V72.1018L172.174 72.3828L172.455 72.1018L171.05 71.2588Z" fill="#FDFDFD"/>
<path d="M183.415 70.9775L183.977 72.1016L182.853 72.6636C183.987 72.61 184.139 72.0274 184.258 70.9775H183.415Z" fill="#A19FA1"/>
<path d="M164.023 71.2588C164.168 71.9543 164.193 71.9824 164.866 71.8208L165.991 72.9449L164.023 71.2588Z" fill="#7C6959"/>
<path d="M181.446 71.2588L180.884 72.6639H181.165L181.446 71.2588Z" fill="#7C6959"/>
<path d="M181.729 72.1015V72.3825L182.853 71.5395L183.977 72.1015C183.306 71.0783 182.616 71.5049 181.729 72.1015Z" fill="#FDFDFD"/>
<path d="M163.181 71.8208V72.1018L165.148 72.6639L164.867 71.8208L164.024 72.1018V71.5398L163.181 71.8208Z" fill="#A7927C"/>
<path d="M170.206 71.5398L168.52 74.0689H168.801L170.768 72.9449L170.206 71.5398Z" fill="#A7927C"/>
<path d="M170.486 71.5398L170.767 72.6639L171.61 72.3828L171.329 71.5398H170.486Z" fill="#A19FA1"/>
<path d="M173.016 72.6635H175.264C174.444 72.0812 173.696 71.8269 173.016 72.6635Z" fill="#FDFDFD"/>
<path d="M182.569 71.8206L183.131 72.3826V71.8206H182.569Z" fill="#A7927C"/>
<path d="M187.067 71.8206L185.1 72.9446L185.662 73.5066V73.7877L184.819 74.3497C186.207 74.3497 185.543 77.63 185.1 78.5649L185.943 78.8459L187.067 71.8206Z" fill="#7C6959"/>
<path d="M162.057 72.1023L161.495 72.3833V72.6643L162.057 72.1023Z" fill="#FDFDFD"/>
<path d="M162.058 72.3828V72.6638H162.901L162.058 72.3828Z" fill="#A7927C"/>
<path d="M162.901 72.3828V72.6638H164.868L162.901 72.3828Z" fill="#7C6959"/>
<path d="M171.893 72.3828V72.6638H172.736L171.893 72.3828Z" fill="#A7927C"/>
<path d="M173.579 72.3828V72.6638H174.422L173.579 72.3828Z" fill="#A19FA1"/>
<path d="M183.976 72.3828L184.257 73.7879H184.538V72.3828H183.976Z" fill="#A7927C"/>
<path d="M167.958 74.0691C170.73 84.6572 169.404 96.5107 170.725 107.51C171.178 111.288 171.5 115.508 173.016 119.032H173.297C174.07 113.295 175.508 107.687 176.06 101.89C176.548 96.7572 176.134 91.5637 176.622 86.4338C176.998 82.4836 175.762 77.4728 178.918 74.3502V74.0691C177.344 73.8873 175.056 72.4305 174.14 74.0691L173.578 73.7881L173.297 78.5654H173.578V76.3173H173.859L174.702 77.4413V77.7223L173.859 79.6894L173.016 73.7881H172.735V74.6312H172.454L172.173 72.6641L167.958 74.0691Z" fill="#424042"/>
<path d="M171.893 72.9451L172.455 74.6312H172.736V73.7881H173.017C173.017 75.7361 172.572 78.0818 173.86 79.6894L174.703 77.7223V77.4413L173.86 76.3173H173.579V78.5654H173.298L173.579 73.7881L174.141 74.0691L174.984 72.6641L173.579 73.2261H173.298L171.893 72.9451Z" fill="#7C6959"/>
<path d="M175.827 72.6641V72.9451L176.67 73.2261L175.827 72.6641Z" fill="#A7927C"/>
<path d="M177.794 72.9451L179.199 74.0691V73.7881L177.794 72.9451ZM183.976 72.9451V75.7552H184.257L183.976 72.9451Z" fill="#7C6959"/>
<path d="M160.091 73.5068L160.653 75.4739H160.934L160.091 73.5068Z" fill="#A7927C"/>
<path d="M161.215 73.5068V74.6309H161.496L161.215 73.5068ZM161.777 73.5068L162.058 74.9119H162.339L161.777 73.5068Z" fill="#424042"/>
<path d="M176.67 73.5068V73.7879H177.794L176.67 73.5068Z" fill="#A7927C"/>
<path d="M183.134 73.5068V74.0689H183.696L183.134 73.5068Z" fill="#7C6959"/>
<path d="M177.513 74.6309L176.107 75.7549H175.826L175.545 83.9044H175.826L176.618 77.722L177.513 74.6309Z" fill="#7C6959"/>
<path d="M182.291 74.6309V76.598H182.01V75.4739H181.729L180.886 93.4589L181.448 99.0792L180.886 99.6412L181.167 101.327L182.291 101.608V100.484L181.448 100.765L182.01 99.0792H182.291V100.203H182.572L184.258 95.707L183.696 94.8639L185.101 90.0867L183.977 89.2436L184.539 89.5247V89.2436L184.82 86.4335H185.101V87.2765H185.382L185.944 81.6562L185.663 78.8461C184.279 79.5717 184.051 81.611 183.977 83.0613H183.696L183.415 80.5322H183.134L183.415 87.5575H183.134C182.952 85.8557 183.902 80.9708 181.729 80.5322C181.888 79.5256 182.153 79.1431 183.134 78.8461V77.722H183.415V79.1271H183.696L183.977 76.598H183.696V77.441L182.572 77.16V76.879L183.415 76.3169L183.134 74.6309H182.291Z" fill="#7C6959"/>
<path d="M169.083 75.1929L170.769 87.2765L170.207 86.9955L169.926 87.8385L170.207 88.1196L171.331 86.1525H171.612L171.331 87.8385H171.612L171.893 87.2765L172.174 88.6816H171.893L171.331 88.1196L171.612 89.5246H170.769L170.488 89.2436L169.926 88.4006V88.6816L170.488 88.9626L170.221 92.3348L170.488 101.327L171.612 101.046V101.327L171.331 101.889L170.488 101.608L172.174 115.097H172.455L172.736 111.444H172.174L173.017 110.32V112.006H173.298V107.791V107.51V107.229C172.649 106.371 172.757 105.47 172.699 104.418C172.567 102.015 171.796 96.6107 173.579 94.8639L173.017 98.5171H173.298L174.141 96.269L174.422 97.112V97.3931L173.86 97.9551L175.265 98.2361L174.984 99.0791L173.86 98.5171V98.7981L174.422 99.0791L173.86 99.9222L173.017 99.6412V100.765L174.984 100.203L174.703 102.732H174.422L174.703 101.889L173.86 102.451L173.017 101.608V103.294H173.579L173.86 104.699H174.141L174.422 103.856H174.703L174.422 107.791L173.579 107.51V108.915H173.86L175.827 97.112L174.703 97.9551L174.422 97.6741C175.473 96.5885 175.545 95.7713 175.546 94.3019H175.265V94.8639H174.984V93.4588L175.546 94.0209L175.827 85.0284L173.86 84.1854L173.298 84.7474L173.017 82.4993H172.736V84.7474L171.612 84.1854L172.174 81.3752H170.488C170.783 79.321 171.1 76.4173 169.083 75.1929Z" fill="#7C6959"/>
<path d="M183.696 75.7549L183.415 76.3169H183.977L183.696 75.7549Z" fill="#7C6959"/>
<path d="M161.215 76.0356V76.3167L162.62 76.5977V76.3167L161.215 76.0356Z" fill="#424042"/>
<path d="M160.933 76.3169V76.5979L162.057 76.8789V76.5979L160.933 76.3169Z" fill="#A7927C"/>
<path d="M168.801 76.5979V77.4409H169.082L168.801 76.5979Z" fill="#A19FA1"/>
<path d="M184.258 76.8794V78.8465H184.539L184.258 76.8794Z" fill="#7C6959"/>
<path d="M172.173 77.4412V78.2842H172.454L172.173 77.4412ZM180.885 77.4412V78.5652H181.166L180.885 77.4412Z" fill="#7C6959"/>
<path d="M159.246 78.0027V78.8457H159.527L159.246 78.0027Z" fill="#7C6959"/>
<path d="M161.495 78.2842V81.6564L162.057 81.3753L162.338 87.2767C162.62 84.7146 162.875 80.543 161.495 78.2842Z" fill="#424042"/>
<path d="M164.867 78.5652V79.6892H165.148L164.867 78.5652ZM168.801 78.5652V79.4082H169.082L168.801 78.5652Z" fill="#A19FA1"/>
<path d="M173.016 79.1272L172.735 81.9373H173.297L173.016 79.1272Z" fill="#7C6959"/>
<path d="M160.372 79.408V81.094H160.653L160.372 79.408Z" fill="#424042"/>
<path d="M180.604 79.408V80.251H180.886L180.604 79.408Z" fill="#A19FA1"/>
<path d="M183.416 79.408V80.532H183.697L183.416 79.408Z" fill="#7C6959"/>
<path d="M176.67 80.251V81.6561H176.951L176.67 80.251Z" fill="#A19FA1"/>
<path d="M180.604 80.8127V81.6558H180.886L180.604 80.8127Z" fill="#7C6959"/>
<path d="M181.729 80.8127V82.2178H182.01L181.729 80.8127Z" fill="#424042"/>
<path d="M162.338 81.0947V82.4998H162.619L162.338 81.0947Z" fill="#7C6959"/>
<path d="M159.528 81.3752V82.4993H159.809L159.528 81.3752Z" fill="#A19FA1"/>
<path d="M169.083 81.3752V82.7803H169.364L169.083 81.3752Z" fill="#7C6959"/>
<path d="M185.381 81.3752V82.7803H185.662L185.381 81.3752Z" fill="#A7927C"/>
<path d="M186.225 81.3752V82.2183H186.506L186.225 81.3752Z" fill="#A19FA1"/>
<path d="M86.7444 82.2183L86.4633 82.7803H87.0254L86.7444 82.2183ZM160.37 82.2183V83.0613H160.651L160.37 82.2183Z" fill="#A7927C"/>
<path d="M183.133 82.4993L182.852 84.4664H183.133V82.4993ZM19.582 82.7803V83.9043H19.863L19.582 82.7803Z" fill="#A7927C"/>
<path d="M169.083 82.7803V84.7474H169.364L169.083 82.7803Z" fill="#A7927C"/>
<path d="M170.768 83.3425L170.487 83.6235L170.206 84.7476L171.33 85.0286L171.049 86.1527H171.33C171.54 85.3248 171.666 84.9412 170.768 84.7476L171.33 83.3425H170.768Z" fill="#424042"/>
<path d="M180.323 84.1853V89.2436H180.604L180.323 84.1853Z" fill="#A19FA1"/>
<path d="M159.81 84.4663V85.3094H160.091L159.81 84.4663Z" fill="#7C6959"/>
<path d="M165.431 84.4663V86.7144H165.712L165.431 84.4663Z" fill="#A19FA1"/>
<path d="M183.696 84.4663V85.5904H183.977L183.696 84.4663Z" fill="#424042"/>
<path d="M185.942 84.4663V85.5904H186.223L185.942 84.4663Z" fill="#A19FA1"/>
<path d="M169.083 84.7476V86.1526H169.364L169.083 84.7476Z" fill="#A19FA1"/>
<path d="M183.132 84.7476V87.5577H183.413L183.132 84.7476Z" fill="#A7927C"/>
<path d="M172.735 85.5906L173.016 88.6817H173.297V90.6488L172.454 92.897H172.735L173.578 90.9299V93.459H173.297V92.897H173.016L172.735 94.5831H173.016L173.859 93.74L173.578 94.8641H173.859L174.421 91.2109L173.859 91.4919V91.2109C174.347 89.769 174.782 88.1391 173.578 86.9957L173.016 88.4007L172.735 87.5577V85.5906Z" fill="#A7927C"/>
<path d="M176.388 86.9954V90.0865H176.669L176.388 86.9954Z" fill="#7C6959"/>
<path d="M171.892 87.5579V88.6819H172.173L171.892 87.5579Z" fill="#A7927C"/>
<path d="M160.091 87.8386V88.9627H160.372L160.091 87.8386Z" fill="#7C6959"/>
<path d="M175.545 87.8386V89.5247H175.826L175.545 87.8386Z" fill="#A7927C"/>
<path d="M182.288 87.8386L181.445 89.8057L182.85 91.2108L182.288 87.8386ZM183.412 87.8386V89.8057H183.693L183.412 87.8386Z" fill="#424042"/>
<path d="M184.819 87.8386V88.6817H185.1H185.381L184.819 87.8386ZM185.662 87.8386V89.2437H185.943L185.662 87.8386Z" fill="#7C6959"/>
<path d="M169.363 88.4006V90.6488H169.644L169.363 88.4006Z" fill="#7C6959"/>
<path d="M181.445 88.4006V89.2437H181.726L181.445 88.4006Z" fill="#424042"/>
<path d="M185.663 89.2434V90.9295H185.944L185.663 89.2434Z" fill="#A7927C"/>
<path d="M85.6203 89.5244L84.2152 90.9295L84.4962 91.7725L81.4051 92.6156L81.6861 93.1776L80.843 92.3346H80.562L81.1241 94.0207H80V94.3017L84.4962 92.3346L86.1823 89.8054L85.6203 89.5244ZM160.089 89.5244V91.2105H160.37L160.089 89.5244Z" fill="#A19FA1"/>
<path d="M183.133 89.5244L182.009 96.2688H182.571L182.009 97.3928C183.706 96.2929 183.776 91.308 183.133 89.5244Z" fill="#A7927C"/>
<path d="M162.338 90.3674L162.619 95.1447H162.9L162.338 90.3674Z" fill="#A7927C"/>
<path d="M176.388 90.6489V92.616H176.669L176.388 90.6489Z" fill="#A19FA1"/>
<path d="M173.298 90.9299V93.4591H173.579L173.298 90.9299Z" fill="#7C6959"/>
<path d="M169.364 91.2107V92.3348H169.645L169.364 91.2107Z" fill="#A19FA1"/>
<path d="M172.735 91.4919L172.454 92.897V93.178L173.297 92.897L172.735 91.4919Z" fill="#A19FA1"/>
<path d="M171.05 92.616V93.178L171.612 92.616H171.05Z" fill="#424042"/>
<path d="M182.852 92.616V93.74H183.133L182.852 92.616Z" fill="#A19FA1"/>
<path d="M165.43 93.1775V95.9876H165.711L165.43 93.1775Z" fill="#A19FA1"/>
<path d="M172.735 93.1775V94.3016H173.016L172.735 93.1775Z" fill="#FDFDFD"/>
<path d="M171.05 93.4587L171.331 94.5828H171.612L171.05 93.4587Z" fill="#424042"/>
<path d="M162.901 94.0205V95.4256H163.182L162.901 94.0205Z" fill="#A19FA1"/>
<path d="M164.586 94.3022V95.7073H164.867L164.586 94.3022Z" fill="#A7927C"/>
<path d="M183.134 94.5828L182.853 96.2689H183.134V94.5828Z" fill="#424042"/>
<path d="M173.016 94.8638V95.4258L173.578 94.8638H173.016Z" fill="#424042"/>
<path d="M174.984 95.1453V96.5503H175.265L174.984 95.1453Z" fill="#424042"/>
<path d="M162.901 95.4258V95.9878L163.463 95.4258H162.901Z" fill="#A7927C"/>
<path d="M163.462 95.988V97.3931H163.743L163.462 95.988Z" fill="#424042"/>
<path d="M172.735 95.988V97.3931H173.016L172.735 95.988Z" fill="#FDFDFD"/>
<path d="M173.579 96.2693V97.9554L174.422 97.3933V97.1123L174.141 96.2693H173.579Z" fill="#A7927C"/>
<path d="M169.644 97.1123V98.2364H169.925L169.644 97.1123Z" fill="#7C6959"/>
<path d="M176.108 97.1123V99.9225H176.389L176.108 97.1123ZM26.0457 97.3933L25.7647 98.5174H25.4837V97.6743H25.2027L23.5166 102.733L24.6407 105.262H24.9217V101.89H25.2027L25.7647 103.295L26.3268 106.667H26.6078L26.3268 101.328H26.6078C26.9975 106.268 28.6094 110.874 32.5091 113.973L31.104 113.692C33.8453 115.297 37.7981 116.049 40.9395 115.94V115.378C39.7562 115.378 37.6179 115.738 37.8484 114.816C37.0008 115.099 36.5262 115.328 36.7243 114.535C35.8953 114.811 35.7065 114.953 35.8813 114.254C35.0523 114.53 34.8634 114.672 35.0382 113.973C34.0929 113.976 33.3934 113.794 33.0711 112.849C31.881 112.7 30.9823 111.793 30.823 110.601C29.806 110.601 29.1628 108.669 28.809 107.791C27.842 105.39 27.9451 102.821 27.2634 100.484C26.8834 99.1811 27.6841 97.8803 26.0457 97.3933Z" fill="#7C6959"/>
<path d="M174.141 97.6738L172.455 99.3599C173.258 99.0193 174.378 98.6821 174.141 97.6738Z" fill="#424042"/>
<path d="M182.009 97.6738L182.571 98.2359V97.6738H182.009Z" fill="#A7927C"/>
<path d="M180.322 98.5173V101.327H180.603L180.322 98.5173Z" fill="#A19FA1"/>
<path d="M169.644 98.7983V101.046H169.925L169.644 98.7983Z" fill="#A19FA1"/>
<path d="M172.736 99.0791L172.455 99.9221C173.062 99.6473 173.158 99.5883 172.736 99.0791Z" fill="#A7927C"/>
<path d="M181.167 99.0791L180.886 99.6411H181.448L181.167 99.0791ZM182.01 99.0791L181.448 100.765C182.165 100.302 182.318 99.8884 182.01 99.0791Z" fill="#A7927C"/>
<path d="M176.107 99.9224V100.765H176.388L176.107 99.9224ZM180.885 99.9224L181.447 102.733L180.604 107.229H180.885C181.169 105.722 182.604 102.287 181.166 101.327L180.885 99.9224Z" fill="#A7927C"/>
<path d="M172.736 100.203L172.455 102.451H172.736L173.298 100.203H172.736Z" fill="#A7927C"/>
<path d="M173.86 102.451L174.703 101.889L174.422 102.733H174.703L174.984 100.203C173.548 100.433 173.281 101.166 173.86 102.451Z" fill="#424042"/>
<path d="M163.181 101.889L163.462 102.732H163.743V101.889H163.181Z" fill="#7C6959"/>
<path d="M164.023 102.17L164.866 107.51H165.147L164.023 102.17Z" fill="#7C6959"/>
<path d="M181.728 102.451V103.575H182.009L181.728 102.451Z" fill="#7C6959"/>
<path d="M180.604 102.732V106.105H180.886L181.448 103.013L180.604 102.732Z" fill="#7C6959"/>
<path d="M172.735 103.014L173.578 103.576V103.295L172.735 103.014Z" fill="#424042"/>
<path d="M169.924 103.294V104.137H170.205L169.924 103.294ZM175.825 103.294V104.137H176.106L175.825 103.294Z" fill="#A19FA1"/>
<path d="M181.447 103.575L181.166 106.385H181.447V103.575Z" fill="#7C6959"/>
<path d="M173.016 103.856V104.699H173.297L173.016 103.856Z" fill="#A19FA1"/>
<path d="M172.735 104.419V104.981H173.297L172.735 104.419Z" fill="#A7927C"/>
<path d="M173.017 104.98V106.105H173.298L173.017 104.98Z" fill="#7C6959"/>
<path d="M175.545 105.824V106.667H175.826L175.545 105.824Z" fill="#A19FA1"/>
<path d="M180.884 106.385L180.603 109.195H180.884V106.385Z" fill="#7C6959"/>
<path d="M170.488 106.667V107.51H170.769L170.488 106.667Z" fill="#7C6959"/>
<path d="M172.735 107.791V108.353H173.297V107.791H172.735Z" fill="#A7927C"/>
<path d="M174.141 108.353L173.579 112.568H173.86L174.141 108.353Z" fill="#7C6959"/>
<path d="M172.736 110.32L172.174 110.882L173.017 111.444L172.736 110.32Z" fill="#A7927C"/>
<path d="M172.736 111.725V112.287H173.298L172.736 111.725Z" fill="#A7927C"/>
<path d="M172.735 112.287L173.016 115.94H173.297V112.287H172.735Z" fill="#7C6959"/>
<path d="M172.735 116.221V117.064H173.016L172.735 116.221Z" fill="#7C6959"/>
</mask>
<g mask="url(#mask0_5637_142543)">
<rect x="139.014" y="44.562" width="64.3524" height="82.3374" fill="black"/>
</g>
</g>
<defs>
<clipPath id="clip0_5637_142543">
<rect width="42.7143" height="55.2009" fill="white" transform="translate(152.285 63.8926)"/>
</clipPath>
</defs>
</svg>
