<svg width="195" height="142" viewBox="0 0 195 142" fill="none" xmlns="http://www.w3.org/2000/svg">
<path d="M108.316 45.9243C108.223 46.1561 106.878 47.3614 105.302 48.5668C102.706 50.6067 102.335 50.7458 99.7852 50.7458C98.0698 50.7458 96.9108 50.514 96.5863 50.0967C96.169 49.5404 94.9636 49.5868 88.6586 50.3285C78.3201 51.5803 68.6771 52.0439 68.1671 51.3948C67.7962 50.8849 67.1008 50.9776 57.3651 53.0175C56.206 53.2493 55.0934 53.2956 54.8152 53.0638C54.537 52.832 50.9673 53.2029 46.4703 53.9447C42.1124 54.6864 37.4763 55.4282 36.0855 55.5673L33.6283 55.8918L33.9529 53.5274C34.2774 51.2094 34.231 51.163 33.1647 51.3948C32.6084 51.5339 30.1049 51.9975 27.6942 52.3684C25.2834 52.7393 22.5945 53.2029 21.76 53.342C20.6473 53.5274 20.2764 53.3883 20.2764 52.8784C20.2764 52.3684 18.6074 52.7857 12.9978 54.6401L5.67279 57.0972L5.34827 64.4222C4.97738 72.8599 4.23561 77.5887 1.63941 88.2053C0.61947 92.3778 -0.122303 95.9012 0.0167795 95.9939C0.109501 96.0866 3.21567 95.113 6.87817 93.8149C10.5407 92.5168 14.435 91.4042 15.4549 91.3115C16.5212 91.2187 19.5347 90.7551 22.1772 90.1988C24.8198 89.6888 28.2505 89.0861 29.7804 88.9007C32.2375 88.5762 32.562 88.3907 32.6084 87.4635C32.7011 85.98 33.5356 85.1455 34.2774 85.8872C35.0192 86.629 36.2709 86.5827 40.2579 85.5627C42.1587 85.0991 44.9867 84.5428 46.6094 84.3573C49.2056 84.0792 49.4837 83.9401 49.4837 82.9665C49.4837 81.3902 50.3182 81.1121 50.5037 82.5956C50.5964 83.6619 50.8282 83.8937 51.8018 83.801C52.4508 83.7083 56.5306 83.5228 60.8885 83.3374L68.8625 82.9665L71.0878 84.9137C74.194 87.649 76.9293 88.8543 80.7309 89.1325C84.7179 89.4107 86.1087 88.7616 90.1885 84.8673C92.6456 82.5029 92.9701 81.9929 92.2747 81.7148C91.8111 81.483 94.2682 81.4366 97.6989 81.5293C103.54 81.7148 104.189 81.8539 107.203 83.2447C110.819 84.9137 115.687 85.98 119.488 85.98C123.058 85.98 124.078 85.6554 123.8 84.5428C123.568 83.7083 123.939 83.6619 132.887 83.6619C139.424 83.6619 142.576 83.8474 143.272 84.2183C144.384 84.8673 148.788 85.8872 150.457 85.9336C151.06 85.98 152.312 85.47 153.239 84.8209C155.789 83.1056 155.974 83.291 154.815 86.3509C154.63 86.8608 155.511 86.9535 158.942 86.9072C170.949 86.7681 170.254 86.7217 171.366 88.2053C171.876 88.9934 172.34 89.7815 172.34 90.0597C172.34 90.7088 182.168 91.2651 182.539 90.616C183.003 89.8743 187.546 90.477 191.533 91.8214C193.295 92.4241 194.871 92.8414 194.964 92.7023C195.103 92.6096 194.825 89.7352 194.407 86.3509C193.99 82.9665 193.666 79.6285 193.666 78.9331C193.666 78.2841 193.48 77.635 193.202 77.5423C192.692 77.4032 191.348 70.4027 191.348 67.7602C191.348 66.833 191.162 66.0448 190.977 66.0448C190.745 66.0448 190.374 65.0713 190.142 63.8659C189.771 61.826 189.586 61.6406 188.102 61.3624C180.731 60.0179 171.783 58.6271 167.843 58.1635C164.968 57.7926 162.882 57.329 162.558 56.9581C162.187 56.4945 160.842 56.3091 157.736 56.3091C154.398 56.3091 152.961 56.0773 151.246 55.3355C149.53 54.5937 147.49 54.2692 141.603 53.9447C137.476 53.6665 132.099 53.342 129.688 53.1565L125.284 52.832L125.144 49.9113L125.005 47.0369H123.244C122.27 47.0369 120.416 46.8515 119.118 46.5733C115.409 45.8779 108.501 45.4606 108.316 45.9243ZM116.521 48.4741C116.846 48.7523 117.217 48.7523 117.356 48.5205C117.495 48.2887 118.561 48.2423 119.813 48.4741C121.018 48.6595 122.316 48.845 122.641 48.845C123.012 48.8913 123.197 49.7722 123.197 51.673C123.197 54.4083 123.244 54.4546 124.495 54.501C125.191 54.501 126.164 54.5937 126.674 54.6864C127.184 54.8255 130.569 55.011 134.231 55.1964C140.212 55.4746 140.814 55.6137 140.814 56.4018C140.814 57.4217 141 57.4217 142.437 56.4945C143.874 55.5673 148.557 55.9845 151.107 57.2826C152.405 57.9317 153.842 58.1635 156.994 58.1635H161.167L163.809 61.2697C165.664 63.4486 166.359 64.0513 166.174 63.2632C165.107 59.508 165.107 59.4616 166.823 59.7398C167.704 59.8788 170.856 60.3425 173.87 60.7133C176.883 61.1306 179.897 61.6406 180.592 61.9187C181.287 62.1969 182.91 62.4751 184.162 62.5214C188.056 62.7069 188.242 62.985 189.447 69.0583C190.003 71.979 190.606 75.5024 190.745 76.8469C190.884 78.145 191.209 79.3504 191.394 79.4895C191.811 79.7676 193.248 89.7815 192.878 90.1524C192.785 90.2452 191.719 89.967 190.513 89.5497C189.308 89.0861 186.897 88.6225 185.089 88.4834C183.327 88.3907 181.566 88.2053 181.287 88.0662C180.963 87.9735 180.685 88.1589 180.685 88.5762C180.685 89.1325 180.175 89.1789 177.579 88.9471C174.101 88.6225 173.406 88.0662 169.419 82.8274C168.399 81.483 167.472 80.463 167.379 80.6021C167.286 80.6948 167.426 81.7611 167.75 82.9202C168.028 84.1255 168.121 85.2382 167.982 85.4236C167.796 85.6091 167.055 85.3773 166.313 84.96C165.571 84.5428 164.876 84.311 164.737 84.4964C164.644 84.6819 162.929 84.8209 160.889 84.8209C158.292 84.8209 157.319 84.6819 157.365 84.2646C157.458 83.9401 157.597 82.5029 157.736 81.0194C157.922 78.6086 157.922 78.4695 157.412 79.814C157.087 80.8339 156.623 81.3439 156.021 81.3439C155.511 81.3439 154.213 81.9929 153.1 82.7347C151.014 84.1719 148.881 84.4037 147.259 83.3838C146.888 83.1983 146.146 83.0592 145.636 83.1056C145.033 83.1983 143.967 82.642 142.901 81.6221C141.927 80.6948 141 79.9531 140.814 79.9531C140.629 79.9531 139.934 79.1649 139.238 78.2377C138.172 76.8005 138.033 76.7078 138.265 77.635C138.45 78.2841 138.914 79.3504 139.238 80.0458C139.609 80.7412 139.887 81.483 139.887 81.6684C139.887 81.8539 136.735 82.0393 132.933 82.0393C126.628 82.0393 125.979 81.9466 125.979 81.2048C125.979 80.7876 126.396 79.9994 126.906 79.4895C127.602 78.794 127.694 78.5622 127.138 78.5622C126.628 78.5622 126.582 78.3304 126.906 77.3569C127.833 74.9925 127.277 75.1315 125.979 77.635C124.31 80.8339 122.131 83.1983 120.926 83.1983C120.369 83.1983 119.952 83.3838 119.952 83.6619C119.952 84.4037 115.919 84.2183 115.131 83.4301C114.76 83.0592 114.342 82.9202 114.203 83.152C113.832 83.7083 111.607 83.1056 107.898 81.5293C103.865 79.814 97.2353 79.0258 91.023 79.5822C84.7643 80.1385 84.5788 80.2312 87.0359 81.6684C88.195 82.3175 89.2149 82.9665 89.3076 83.0129C89.7712 83.3838 86.3405 86.0263 85.5988 85.8409C85.0888 85.7018 84.7179 85.9336 84.5788 86.4899C84.3934 87.2317 83.8834 87.3708 81.6581 87.3708C78.042 87.3708 74.2404 85.5164 70.1143 81.6221L66.869 78.6086L66.6372 80.0921L66.4054 81.5757L62.0011 81.4366C59.5904 81.3902 56.4842 81.5293 55.0934 81.8075C53.7026 82.0857 52.3581 82.0857 52.1726 81.9002C51.9408 81.6684 51.5236 80.2312 51.2454 78.655C50.8282 76.476 50.5037 75.7806 49.9473 75.7806C49.1592 75.7806 48.0929 78.3768 48.0929 80.3239C48.0929 82.0857 47.5829 82.7347 46.1921 82.7347C45.4503 82.7347 42.8541 83.152 40.4434 83.7083C36.4563 84.5428 35.9464 84.5891 35.2973 83.9401C34.7874 83.3838 34.3701 83.3374 33.7211 83.6619C33.2575 83.9401 32.423 84.1255 31.913 84.1255C31.1249 84.1255 30.9394 84.4037 30.9394 85.5164C30.9394 86.7217 30.754 86.9072 29.2241 87.139C28.2505 87.2781 25.3298 87.8344 22.7336 88.3444C20.1374 88.808 17.773 89.2252 17.5412 89.2252C17.0312 89.2252 17.1239 88.4834 18.4684 81.9466C19.6274 76.3369 19.6274 75.7806 18.3293 75.7806C16.3821 75.7806 16.1503 76.3369 15.8722 81.3439C15.4549 89.6425 15.9649 88.8543 9.93798 90.8015C7.10998 91.7751 4.37469 92.7023 3.95745 92.9804C2.42754 93.7686 2.33482 93.3977 3.40112 89.0861C4.00381 86.7681 4.51377 84.4501 4.51377 83.9865C4.51377 83.5692 4.69922 83.1983 4.93102 83.1983C5.16283 83.1983 5.34827 82.5029 5.34827 81.6684C5.39463 80.8803 5.71915 78.0986 6.09004 75.5488C6.50729 72.9989 6.9709 68.0847 7.10998 64.6076L7.4345 58.3026L12.5805 56.6336C15.4549 55.7064 17.9584 54.9182 18.1438 54.9182C18.3756 54.9182 18.422 57.2826 18.2829 60.2034C18.0511 65.4885 18.0511 65.5349 19.0247 65.164C19.9519 64.8395 20.0446 64.3758 20.2764 60.4352C20.4155 58.0244 20.6937 55.7991 20.8791 55.4746C21.1109 55.1964 22.1772 54.9182 23.2899 54.9182C24.4025 54.9182 25.7934 54.7328 26.3961 54.501C26.9987 54.2692 28.5287 53.9447 29.8268 53.7592L32.1912 53.4811L31.9594 55.7527L31.7739 58.0244L38.8671 56.9581C42.8078 56.4018 47.7684 55.5673 49.901 55.1964C52.0336 54.7792 53.9807 54.5937 54.1662 54.7328C54.398 54.8719 54.5834 55.5209 54.5834 56.2163C54.6298 56.9118 54.9079 58.0708 55.2788 58.8589C55.8815 60.2034 55.8815 60.157 55.6497 57.839C55.3715 55.0573 55.5106 54.9182 58.8022 54.7792C59.9149 54.7328 61.0739 54.4546 61.3984 54.1765C62.1402 53.4347 66.2663 52.9247 66.6372 53.5274C67.0081 54.0838 75.6312 53.5738 89.354 52.0902C93.2947 51.673 94.6855 51.673 94.8246 52.0902C94.9173 52.4148 96.4472 52.6002 99.0897 52.6002H103.123L106.322 50.004L109.521 47.4542L112.72 47.7323C114.482 47.8714 116.197 48.1959 116.521 48.4741Z" fill="black"/>
<path d="M108.269 52.4611L105.58 54.5937V58.6735V62.7069L107.435 64.0977C109.057 65.2567 109.892 65.4885 113.415 65.7667C116.614 66.0448 117.727 66.323 118.376 67.0184C119.396 68.1311 119.767 72.0254 119.025 73.4626C118.515 74.3898 118.237 74.4825 116.243 74.2507C113.693 73.9262 108.64 71.7472 107.11 70.2637L106.044 69.2437V71.7936C106.044 74.2971 106.044 74.2971 108.316 75.7342C109.567 76.5687 110.958 77.2642 111.422 77.3569C111.932 77.496 112.905 77.7741 113.601 78.0523C114.342 78.3305 115.594 78.5623 116.475 78.5623C117.82 78.5623 118.329 78.1914 120.091 75.8733C122.78 72.3499 122.734 72.489 123.244 69.4292C123.568 67.2502 123.522 66.4157 122.919 65.0713L122.177 63.4023L117.263 62.9387C112.627 62.4751 112.303 62.3823 111.051 60.9915C109.938 59.7398 109.753 59.1371 109.753 56.7727V53.991H112.442C115.131 53.991 117.078 54.8255 119.396 56.9118L120.416 57.839V54.5937V51.3021L117.31 51.024C115.548 50.8385 113.415 50.6531 112.534 50.514C111.144 50.3749 110.495 50.6531 108.269 52.4611Z" fill="black"/>
<path d="M89.2149 55.2428L87.9632 55.4282L88.0095 65.3494L88.0559 75.2706L90.4203 74.9924C91.7647 74.8534 92.8774 74.7143 92.9238 74.6679C92.9701 74.6216 92.8774 73.0453 92.692 71.1445C92.5065 69.2437 92.4138 66.972 92.5065 66.1375L92.6456 64.654H95.4272H98.1625V69.9855V75.317H99.4606C100.156 75.317 101.408 75.5024 102.242 75.7342C103.03 75.966 103.726 76.1051 103.726 76.0587C103.726 75.966 103.355 75.0852 102.938 74.1116C102.335 72.7208 102.103 70.4491 101.964 64.0513L101.779 55.8454H99.7388H97.6989V58.6271V61.4087H94.9173C93.0165 61.4087 92.1356 61.2233 92.0893 60.8061C92.0893 60.5279 92.0893 59.0443 92.1356 57.5608C92.2284 54.6864 92.3211 54.7792 89.2149 55.2428Z" fill="black"/>
<path d="M81.7045 55.8454C80.1746 56.0309 77.6247 56.2163 76.0484 56.2627L73.1277 56.309V58.8589V61.4551L74.4258 60.5279C75.6312 59.647 76.4193 59.3688 77.6711 59.5079C78.4128 59.5543 78.4592 71.469 77.7174 74.0652C77.4393 75.0851 77.3465 75.966 77.4393 76.1051C77.5784 76.1978 78.8765 76.1514 80.2673 76.0124L82.8635 75.6878L82.539 73.9725C82.3071 73.0453 82.1681 69.29 82.1681 65.5812V58.8589L83.9761 58.8125C85.8306 58.8125 86.4796 58.1635 86.526 56.1699C86.5723 55.2891 86.3405 55.2891 81.7045 55.8454Z" fill="black"/>
<path d="M60.8421 57.3289C59.5904 57.5607 58.4777 57.8389 58.4314 57.8852C58.3386 57.978 58.5704 58.627 58.9413 59.3224C59.4977 60.3887 59.5904 62.1041 59.3586 68.3164C59.2195 72.5352 59.0341 76.105 58.9413 76.1977C58.6632 76.5223 56.9478 72.118 54.5371 65.1175L52.2654 58.3952L50.0401 58.5343C47.4902 58.7197 47.3048 58.8588 48.0929 59.786C49.391 61.3623 47.073 67.7601 42.2051 76.1977L40.2116 79.5821L42.8541 79.2575C44.3377 79.0721 45.5894 78.8867 45.5894 78.8867C45.6358 78.8403 46.053 77.3104 46.563 75.5487L47.3975 72.3034L49.8083 72.1643L52.219 72.0253L53.0999 74.946C53.8416 77.3568 54.1662 77.8667 55.0007 77.8204C55.5106 77.8204 57.736 77.774 59.9149 77.7276C63.4847 77.6349 63.8556 77.5422 63.8556 76.7541C63.8556 76.2441 63.6238 75.6878 63.392 75.5487C63.0211 75.3169 63.0211 75.0387 63.392 74.6678C63.6701 74.2969 63.7629 72.9061 63.5774 71.0981L63.2992 68.131L65.8954 70.8662C67.3326 72.3962 68.4916 73.787 68.4916 73.9724C68.4916 74.1579 70.1143 76.0123 72.1078 78.0058C75.863 81.8537 76.6975 82.271 80.7309 82.271H82.6317L80.87 81.2047C78.0883 79.4893 73.6841 74.946 70.9951 70.8199L68.4453 67.0647L69.6507 65.3493C70.5315 64.0049 70.8097 62.9849 70.8097 61.1305C70.8097 57.3753 69.3725 56.448 65.8491 57.9316C63.8092 58.8124 63.8556 58.8124 63.8556 57.6998C63.8556 57.1898 63.7165 56.8189 63.531 56.8189C63.2992 56.8653 62.1402 57.0971 60.8421 57.3289ZM67.1008 61.2232C67.7962 63.0776 67.6572 63.6803 66.22 65.1639C64.1801 67.2037 63.392 66.9719 63.392 64.283C63.392 60.5742 66.0345 58.3952 67.1008 61.2232ZM50.8746 66.462C50.8746 66.6938 51.0136 67.2037 51.1527 67.5746C51.2918 67.9919 51.0136 68.3164 50.3646 68.5018C48.9738 68.8727 48.881 68.7337 49.4374 67.2501C49.901 66.0911 50.8746 65.5811 50.8746 66.462Z" fill="black"/>
<path d="M25.8397 57.6999C25.4688 57.9317 24.6807 58.0244 24.1244 57.8389C23.0581 57.6071 23.0581 57.6535 23.0581 62.475V67.3429L21.1109 67.8065C19.9983 68.0847 18.0975 68.4556 16.8457 68.641L14.5741 68.9655L14.8986 65.303C15.084 63.2631 15.3158 61.0842 15.4549 60.3424C15.7794 58.8589 15.5476 58.8125 12.0706 59.8325C9.61346 60.5742 9.52074 60.6206 9.75254 62.0114C9.93798 63.3095 9.75254 66.4157 8.87168 75.5488C8.77896 76.8005 8.22263 79.7212 7.71267 82.0393C7.2027 84.3109 6.69273 86.5826 6.60001 87.0462C6.50729 87.5562 6.64637 87.8344 6.97089 87.6953C7.29542 87.6026 8.63988 87.1389 9.98434 86.629C11.3752 86.1654 12.6269 85.47 12.8587 85.0527C13.0442 84.6818 13.3223 81.9002 13.4614 78.8404C13.6468 75.8269 13.8323 73.3234 13.8786 73.2771C15.3622 72.4426 21.3891 71.3763 22.0381 71.7935C22.2699 71.9326 21.9454 74.7143 21.3891 77.9595C20.7864 81.2048 20.2764 84.1255 20.2764 84.4037C20.2764 84.96 22.919 84.6818 23.3362 84.0791C23.4753 83.8473 24.4953 83.6619 25.6543 83.6619C27.416 83.6619 27.7405 83.5228 27.5087 82.8274C26.8133 80.463 26.8133 77.2177 27.416 71.6544C27.8796 67.6674 27.9723 65.2103 27.6942 64.8858C27.4624 64.6076 27.416 64.144 27.6478 63.9122C27.8796 63.6804 28.2041 62.1041 28.3896 60.3424C28.6677 57.2826 28.6677 57.2362 27.6014 57.2362C26.9987 57.2362 26.2106 57.4681 25.8397 57.6999Z" fill="black"/>
<path d="M124.495 60.018C124.681 62.4287 125.005 62.7996 125.979 61.6406C126.304 61.2697 127.231 60.9452 128.065 60.9452H129.595L129.92 64.0514C130.105 65.8131 130.291 69.6147 130.337 72.5354L130.383 77.8669L133.072 77.9132C135.622 77.9596 135.761 77.8669 135.576 76.986C134.37 71.9791 133.907 68.9193 133.768 65.3495L133.629 61.177L135.019 61.3625C135.807 61.4088 136.781 61.687 137.245 61.9188C137.94 62.336 138.033 62.1506 138.033 60.4816V58.5344L136.317 58.6735C135.344 58.7199 134.046 58.6272 133.397 58.4881C132.748 58.349 130.476 58.1172 128.297 57.9318L124.356 57.6536L124.495 60.018Z" fill="black"/>
<path d="M141.649 60.2498C139.145 61.9188 138.821 62.7996 139.053 67.6212C139.192 70.7273 139.47 72.2109 140.073 73.1381C141.834 75.7807 145.358 76.5224 148.139 74.8534C152.868 71.9791 151.199 62.9387 146.424 65.6276C144.894 66.5085 144.477 67.6675 145.868 67.2039C148.279 66.4621 149.298 70.4492 147.073 71.8864C146.053 72.5354 145.682 72.5818 144.755 72.0718C142.762 71.0055 141.788 66.2767 143.086 63.8659C143.921 62.2433 146.146 61.2697 148.279 61.6406C151.987 62.2897 153.795 64.9322 153.795 69.8465C153.795 73.4163 152.59 76.0588 149.948 78.3305L148.047 79.9531H149.53C150.318 79.9531 151.709 79.4895 152.544 78.8868C153.425 78.3305 154.537 77.6351 155.001 77.3569C155.789 76.8933 155.882 76.1979 155.882 71.0519C155.882 65.674 155.789 65.164 154.723 63.5414C153.193 61.3161 149.577 59.5544 146.053 59.2762C143.782 59.0908 143.133 59.2762 141.649 60.2498Z" fill="black"/>
<path d="M35.8073 60.6671L31.6348 61.1771L31.0785 69.0584C30.8003 73.37 30.4758 77.7279 30.3831 78.7015L30.1976 80.5095L31.8666 80.2314C32.7475 80.0923 34.7873 79.8605 36.3636 79.675C39.1916 79.3969 39.1916 79.3969 39.3771 77.7742L39.5625 76.1516L37.3372 76.3371L35.1119 76.5689V74.1581C35.1119 71.4692 35.4828 71.1446 38.728 71.1446C40.1652 71.1446 40.2116 71.0519 40.2116 69.3366V67.4821L38.728 67.9458C35.7609 68.7802 35.5291 68.6412 35.6682 65.8132L35.7609 63.2633H37.6617C38.728 63.2633 39.7943 63.4951 40.1188 63.8196C40.5361 64.2369 40.6752 64.2369 40.6752 63.6342C40.6752 63.2633 40.8142 62.2434 40.9533 61.4552C41.1851 60.3889 41.0924 60.0181 40.6288 60.0644C40.2579 60.1108 38.1253 60.3889 35.8073 60.6671Z" fill="black"/>
<path d="M156.577 61.2697C156.577 61.4088 157.133 62.2896 157.782 63.1705C159.73 65.6739 160.332 68.4092 160.332 74.9461L160.379 80.7876L162.65 80.973C165.293 81.1584 165.2 81.5293 164.041 75.0852C163.578 72.5353 163.253 70.4027 163.299 70.31C163.485 70.1246 167.426 74.2971 167.611 74.8997C167.704 75.1315 168.075 75.317 168.399 75.317C168.77 75.317 169.141 75.6879 169.28 76.1051C169.465 76.5687 170.346 77.7741 171.227 78.794C175.307 83.3374 176.605 84.6355 176.79 84.4501C176.976 84.2646 176.188 79.9994 175.724 78.5622C175.446 77.7741 175.26 75.7342 174.751 68.5947L174.426 63.495L172.247 63.3559C170.995 63.2632 170.022 63.2632 170.022 63.3559C170.022 63.4486 170.439 64.8395 170.995 66.5084C172.108 70.1246 172.803 73.4626 172.386 73.4626C172.062 73.4626 164.088 65.0713 161.909 62.4287C160.842 61.177 160.379 60.9451 158.617 60.9451C157.504 60.9451 156.577 61.0842 156.577 61.2697Z" fill="black"/>
<path d="M177.161 64.9321C177.857 66.6475 178.877 72.1644 179.479 77.4495C179.804 80.3703 180.175 82.8274 180.267 82.9665C180.407 83.0592 181.844 83.3837 183.513 83.6619C185.135 83.9401 187.175 84.2646 188.056 84.4037C189.447 84.6818 189.586 84.5891 189.354 83.9401C189.169 83.4764 189.03 82.7347 189.03 82.2247C189.03 81.4829 188.705 81.3439 186.758 81.3439C184.115 81.3439 183.652 80.9266 183.374 77.9595L183.095 75.7806L185.367 76.0587L187.639 76.3832V74.6679C187.639 73.0916 187.546 72.9989 186.155 72.9989C183.745 72.9989 182.539 72.4889 182.307 71.4226C181.334 66.462 181.566 66.0912 184.579 68.131C185.506 68.7801 186.341 69.29 186.433 69.29C186.526 69.29 186.433 68.5483 186.294 67.6211C186.063 66.0912 185.831 65.8594 183.976 65.303C182.817 64.9785 180.731 64.5613 179.34 64.3758C177.022 64.0976 176.837 64.144 177.161 64.9321Z" fill="black"/>
<path d="M191.626 60.3888C191.487 60.6206 191.811 60.7597 192.368 60.7597C192.924 60.7134 193.434 61.0379 193.527 61.4088C193.712 62.0115 193.666 62.0115 193.248 61.4088C192.692 60.5743 192.136 60.9915 192.553 62.0578C192.924 62.985 193.619 63.0314 193.944 62.1042C194.454 60.8061 192.321 59.2762 191.626 60.3888Z" fill="black"/>
<path d="M191.162 62.1041C191.348 62.475 191.672 62.7996 191.904 62.7996C192.182 62.7996 192.136 62.5214 191.811 62.1041C191.487 61.7333 191.162 61.4087 191.07 61.4087C190.977 61.4087 191.023 61.7333 191.162 62.1041Z" fill="black"/>
</svg>
