<svg width="195" height="142" viewBox="0 0 195 142" fill="none" xmlns="http://www.w3.org/2000/svg">
<path d="M19.1694 39.3101C19.1163 39.5622 18.6255 43.8602 18.0816 48.8614C16.6224 62.0342 16.7551 61.0525 15.9326 65.6822C15.8795 65.9741 15.7601 66.1598 15.5744 66.2261C15.1234 66.3986 13.2397 66.5445 13.2397 66.4118C13.2397 66.2792 11.7672 53.5441 11.1702 48.4236C10.9712 46.7654 10.7855 45.4256 10.759 45.4521C10.7457 45.4786 10.5467 47.0175 10.3212 48.8746C9.29977 57.5504 8.71608 61.2382 7.5885 65.8679L7.11094 67.8312L6.18235 68.1098C5.67825 68.2557 5.18742 68.3486 5.09456 68.3221C4.89558 68.2425 4.21903 66.0536 3.75473 63.9842C3.43636 62.5515 2.81287 58.4392 2.28225 54.2605C2.14959 53.2656 2.00367 52.4431 1.93734 52.4431C1.88428 52.4431 1.83121 52.5492 1.83121 52.6951C1.83121 52.8278 1.73836 53.7962 1.63223 54.8442C1.52611 55.8922 1.34039 57.7096 1.23426 58.8769C1.12814 60.0443 0.796495 63.5066 0.504651 66.5577C0.212807 69.6088 -0.0127092 72.1293 0.000556488 72.1426C0.0270878 72.1558 0.915886 72.5936 1.97714 73.111C7.09767 75.6049 10.5733 78.7887 13.4652 83.6174C15.2826 86.6419 16.6091 90.0512 17.551 94.0707C17.8826 95.5299 18.9439 102.017 18.9439 102.654C18.9439 103.317 19.1827 102.959 19.2623 102.163C19.4878 100.16 20.3368 95.437 20.8674 93.3676C23.3746 83.3786 28.6013 76.6662 36.8525 72.8457C37.8076 72.3946 38.3117 72.0895 38.3117 71.9569C38.3117 71.5589 37.5158 62.3127 37.2505 59.6729C36.7729 54.8972 36.428 52.5758 36.1892 52.5758C36.1362 52.5758 36.0035 53.637 35.8841 54.9238C35.4463 59.4474 34.73 63.5066 33.8279 66.5843L33.3238 68.2955L32.9259 68.2557C32.3953 68.2027 31.4003 67.8578 31.082 67.619C30.8564 67.4465 30.684 66.4384 29.6625 59.3678C29.0258 54.937 28.3758 50.3604 28.2166 49.193C28.0707 48.0256 27.8717 46.646 27.7921 46.1419C27.6594 45.2664 27.6462 45.2399 27.5533 45.6776C27.5002 45.9297 27.3278 47.5481 27.1686 49.2593C26.7308 54.1146 26.2533 58.532 25.9747 60.5086C25.6298 62.7903 24.94 66.2659 24.7808 66.4251C24.6746 66.5312 22.6981 66.3322 22.5654 66.1863C22.4991 66.12 22.0746 62.724 20.4694 49.0604C19.2623 38.8591 19.2623 38.7928 19.1694 39.3101Z" fill="black"/>
<path d="M48.3671 60.2829C47.664 60.3492 46.9211 60.4686 46.7089 60.5482C46.3507 60.6809 46.3772 60.7074 47.8364 61.4636C50.0783 62.6044 50.7549 63.3871 50.5161 64.5942C50.3834 65.3106 50.3569 65.3637 45.4486 76.1884C42.9945 81.5875 42.6894 82.158 41.0444 84.1213C39.824 85.5805 39.2403 86.3234 39.2403 86.4295C39.2403 86.4958 42.2649 86.5356 45.9527 86.5356H52.6784L52.0284 85.9785C49.8528 84.0947 48.8446 82.8876 48.6987 81.9855C48.5926 81.2824 48.9109 80.3936 50.7814 76.268C52.7049 72.0363 53.2355 70.9352 53.4213 70.8158C53.5009 70.776 53.6866 71.0281 53.8458 71.373C54.8672 73.6281 55.5172 75.1537 57.1489 79.1069C59.2449 84.2009 60.9429 88.1408 61.1817 88.4591C61.3276 88.6581 61.3806 88.6316 61.6858 88.1673C61.8847 87.8887 62.5746 86.4693 63.2246 85.0101C68.1329 74.0394 69.6584 70.7495 69.8839 70.7495C69.9768 70.7495 72.2585 76.0425 73.8901 80.0355C74.6198 81.8396 74.7126 82.1978 74.7126 82.9539C74.7126 84.0549 74.5004 84.4794 73.2932 85.7131L72.3513 86.6683H79.873C84.0118 86.6683 87.3946 86.6285 87.3946 86.5887C87.3946 86.5356 86.7976 85.6601 86.068 84.6121C85.3384 83.5774 84.4761 82.2243 84.1578 81.6141C82.8312 79.1201 76.8086 64.7402 76.5963 63.5595C76.4637 62.8564 76.7953 62.2064 77.6709 61.3972C78.9444 60.2033 79.3025 60.2696 71.2768 60.2696C67.443 60.2696 64.3124 60.2962 64.3124 60.336C64.3124 60.3625 64.8828 60.8135 65.5726 61.3176C67.7747 62.9626 67.7747 63.0024 65.5063 68.0964C64.445 70.4975 63.6756 72.0097 63.5695 71.9036C63.5429 71.8771 62.4419 69.2638 61.1286 66.1065C59.8153 62.9493 58.701 60.3227 58.6612 60.2829C58.5285 60.1503 49.7467 60.1503 48.3671 60.2829Z" fill="black"/>
<path d="M92.6345 60.2566L91.7192 60.3362L92.5417 61.0525C93.4703 61.8617 93.8948 62.4587 93.8948 62.9628C93.8948 63.4271 93.6825 63.9444 91.507 68.7731C89.2518 73.7345 87.2354 78.3244 86.9966 78.9744C86.8374 79.4122 86.864 79.505 87.2619 80.301C88.6548 83.0735 90.8437 85.6072 93.0856 87.0532C94.2131 87.7695 94.3856 87.7695 94.4917 86.9603C94.8632 84.3735 95.6989 81.3224 96.4285 79.9826C97.251 78.457 99.1082 76.8519 101.801 75.2998L102.318 75.008L98.3122 74.9947C96.0969 74.9947 94.2927 74.9682 94.2927 74.9416C94.2927 74.8886 96.3356 70.564 98.3122 66.4649L99.1214 64.7669L99.3469 65.2047C99.4663 65.4434 100.488 67.818 101.629 70.4844C106.908 82.9276 106.709 82.3571 106.484 83.5643C106.351 84.2806 106.02 84.8511 105.436 85.4082C104.972 85.846 104.6 86.4562 104.733 86.5889C104.786 86.6287 108.155 86.6685 112.228 86.6685C117.839 86.6685 119.63 86.6287 119.63 86.5093C119.63 86.4297 119.511 86.2307 119.365 86.0715C118.675 85.3286 116.513 82.2377 115.995 81.2295C115.359 79.9826 112.016 72.1824 110.026 67.2874C109.124 65.072 108.712 63.8516 108.593 63.1485L108.447 62.1536L109.256 61.2382C109.933 60.4954 110.026 60.3229 109.84 60.2433C109.575 60.1372 93.9611 60.1504 92.6345 60.2566Z" fill="black"/>
<path d="M130.707 60.283C127.046 60.5616 123.464 62.3126 120.797 65.1382C116.314 69.8741 116.38 77.3957 120.943 82.1978C123.371 84.7581 127.231 86.4296 131.503 86.801C133.294 86.9602 134.62 86.8939 136.942 86.5224C138.865 86.2173 140.019 86.2041 141.054 86.4694C142.832 86.9337 143.866 87.8092 145.458 90.2236L146.493 91.7756L146.533 82.5693C146.546 77.5018 146.546 73.3364 146.52 73.3099C146.493 73.2833 143.614 73.2833 140.112 73.2966L133.758 73.3364L135.443 74.3976L137.127 75.4589L137.141 79.0672V82.6887L136.61 82.954C136.318 83.0999 135.721 83.2724 135.284 83.3387C132.007 83.7765 129.248 81.309 128.372 77.1834C128.041 75.6048 127.974 72.0894 128.253 70.4975C128.996 66.0934 131.821 63.3208 135.045 63.8249C136.318 64.0239 137.525 64.6341 138.481 65.5893C139.091 66.1995 139.409 66.6903 139.98 67.8577L140.696 69.3567L141.439 67.7648C141.85 66.8893 142.805 64.8597 143.561 63.2545C144.317 61.6494 144.901 60.2963 144.875 60.2299C144.808 60.1106 132.445 60.1371 130.707 60.283Z" fill="black"/>
<path d="M150.672 60.2166C150.672 60.2564 150.964 60.6146 151.322 61.0126C152.038 61.835 152.555 62.8034 152.874 63.9443C153.166 65.0453 153.312 68.6801 153.312 75.1935C153.312 81.4947 153.245 82.2774 152.476 83.8162C152.051 84.6519 150.685 86.2703 150.38 86.2703C150.327 86.2703 150.274 86.3234 150.274 86.403C150.274 86.4958 152.768 86.5356 157.504 86.5356C162.239 86.5356 164.733 86.4958 164.733 86.403C164.733 86.3234 164.68 86.2703 164.627 86.2703C164.388 86.2703 163.035 84.7978 162.704 84.1611C162.505 83.8029 162.226 83.0468 162.08 82.4764C161.828 81.508 161.815 80.9906 161.815 73.5751C161.815 64.9922 161.855 64.4881 162.571 62.9626C162.77 62.5514 163.248 61.8748 163.632 61.4503C164.256 60.787 164.335 60.6411 164.203 60.4023C164.057 60.137 163.977 60.137 157.371 60.137C153.683 60.137 150.672 60.1768 150.672 60.2166Z" fill="black"/>
<path d="M180.254 60.2299C178.224 60.3493 176.301 60.8534 174.484 61.7555C170.491 63.7321 167.877 66.7434 166.843 70.6169C166.418 72.2088 166.418 74.8354 166.843 76.4538C168.474 82.6091 174.444 86.801 181.581 86.801C185.003 86.801 188.399 85.7132 190.84 83.8295C192.206 82.7815 194.117 80.659 194.647 79.5978C195.39 78.1386 195.112 78.1916 192.326 80.1151C190.774 81.1764 188.572 82.2642 186.821 82.8213C184.446 83.5907 182.244 83.5111 180.705 82.6091C179.206 81.7336 177.972 79.7172 177.442 77.3161C177.216 76.2416 177.15 75.5385 177.15 73.6017C177.137 70.6567 177.362 69.3832 178.198 67.6322C179.127 65.7087 180.161 64.6607 181.727 64.0239C182.416 63.7453 182.708 63.7055 183.624 63.7453C185.72 63.8382 186.967 64.727 188.704 67.3271C189.328 68.2689 189.858 69.0118 189.872 68.9985C189.991 68.8393 193.918 60.3626 193.918 60.2697C193.918 60.1503 182.125 60.1238 180.254 60.2299Z" fill="black"/>
<path d="M81.3189 93.2614C81.0271 93.9114 80.271 95.4901 79.6475 96.7901L78.5199 99.1514L79.4618 99.1116C80.4169 99.0718 80.4169 99.0718 80.5495 98.634L80.6689 98.2095H81.8363H82.9904L83.1496 98.6738L83.3088 99.1381H84.2905H85.2721L85.0997 98.7003C84.4629 97.2278 82.0353 92.1073 81.9557 92.1073C81.9026 92.1073 81.6241 92.6247 81.3189 93.2614ZM82.2741 95.9013C82.4598 96.2462 82.619 96.538 82.619 96.5646C82.619 96.5911 82.2873 96.6176 81.8894 96.6176H81.1598L81.4914 95.9543C81.6771 95.5829 81.8496 95.2911 81.8761 95.2911C81.9159 95.2911 82.0884 95.5696 82.2741 95.9013Z" fill="black"/>
<path d="M72.6698 92.4919C71.0513 92.7307 69.9901 94.1103 69.9636 95.9675C69.9636 96.6839 70.0299 96.9757 70.3483 97.6257C71.2503 99.4299 73.1871 99.9605 75.5484 99.0584L76.1321 98.8329L76.0923 97.2941L76.0525 95.7553L74.8984 95.7155C74.2484 95.7022 73.731 95.7287 73.731 95.7818C73.7443 95.8349 73.9167 96.1002 74.129 96.3522C74.5535 96.8298 74.6596 97.4931 74.3678 97.7849C74.2749 97.8778 73.8637 97.9441 73.4524 97.9441C72.7759 97.9441 72.6432 97.891 72.285 97.5461C71.5952 96.8563 71.4493 95.8614 71.8738 94.9328C72.3514 93.8716 73.3994 93.5134 74.6994 93.9379C75.1504 94.0838 75.5351 94.1899 75.5617 94.1634C75.5882 94.1369 75.6413 93.792 75.6811 93.394L75.7606 92.6644L75.177 92.5848C73.9433 92.4389 73.2402 92.4123 72.6698 92.4919Z" fill="black"/>
<path d="M126.488 92.4655C126.435 92.5053 126.396 94.0309 126.396 95.8483V99.1381H127.218H128.027L127.948 97.5595C127.881 96.3391 127.895 95.9677 128.027 95.9146C128.186 95.8483 128.412 96.0473 130.84 98.3024C131.49 98.9126 132.113 99.3902 132.232 99.3769C132.405 99.3371 132.431 98.8994 132.431 96.0207V92.7043L131.609 92.6645L130.786 92.6247L130.747 94.389L130.707 96.1401L129.115 94.6013C127.55 93.089 126.74 92.3727 126.634 92.3727C126.595 92.3727 126.528 92.4125 126.488 92.4655Z" fill="black"/>
<path d="M112.533 92.6644C112.493 92.7572 112.48 94.2695 112.493 96.0206L112.533 99.2043L113.435 99.2441L114.324 99.2839V97.6523C114.324 95.7553 114.271 95.7553 115.504 97.7717L116.34 99.138H117.256C117.76 99.138 118.171 99.0982 118.171 99.0584C118.171 99.0186 117.839 98.4217 117.441 97.7451C117.043 97.0553 116.712 96.4716 116.712 96.4186C116.712 96.3788 116.884 96.1002 117.11 95.8083C117.654 95.0389 117.733 94.5083 117.388 93.792C116.924 92.8236 116.327 92.5848 114.297 92.5317C112.944 92.4919 112.586 92.5185 112.533 92.6644ZM115.584 94.0971C115.81 94.2828 115.836 94.8532 115.664 95.3308C115.531 95.6757 114.722 96.0471 114.457 95.8879C114.39 95.8481 114.324 95.3573 114.324 94.8001V93.792L114.854 93.8716C115.16 93.9114 115.478 94.0175 115.584 94.0971Z" fill="black"/>
<path d="M137.088 92.7707C136.345 93.1421 136.133 93.3677 135.682 94.2697C135.376 94.8932 135.284 95.2514 135.284 95.8616C135.284 97.0422 135.522 97.6525 136.278 98.4351C137.234 99.4035 138.348 99.7219 139.794 99.4035C140.63 99.2178 141.386 98.8596 141.399 98.6474C141.412 98.5545 141.412 97.9974 141.412 97.4137C141.412 95.4902 141.532 95.6891 140.404 95.6891C139.86 95.6891 139.383 95.7422 139.343 95.8085C139.303 95.8749 139.409 96.3259 139.595 96.8167C139.781 97.2943 139.9 97.7453 139.86 97.8116C139.728 98.0239 138.746 98.1035 138.268 97.9443C136.982 97.5198 136.557 95.4106 137.552 94.3891C138.162 93.7656 138.825 93.6064 139.767 93.8717C140.179 93.9911 140.63 94.1238 140.762 94.1636C140.961 94.2432 140.988 94.1636 140.988 93.4605C140.988 92.5054 141.001 92.5054 138.998 92.5187C137.884 92.5187 137.499 92.5717 137.088 92.7707Z" fill="black"/>
<path d="M39.9965 92.7309C39.9434 92.7707 39.9036 93.1421 39.9036 93.5401C39.9036 94.1768 39.9302 94.2432 40.1424 94.1503C40.2618 94.0972 40.62 94.0309 40.9383 93.9911L41.4955 93.9381V96.5381V99.1382H42.4241H43.3527L43.3792 96.5779L43.419 94.0309L43.9098 93.9911C44.1752 93.9646 44.5201 94.0176 44.6793 94.0972C44.9313 94.2299 44.9446 94.2034 44.9446 93.434V92.638H42.517C41.1771 92.638 40.0363 92.6778 39.9965 92.7309Z" fill="black"/>
<path d="M48.1283 95.8881V99.1382H49.1232H50.1181V97.8779V96.6177H51.0998H52.0682L52.1611 97.2279C52.2008 97.5728 52.2406 98.1433 52.2406 98.4882V99.1382H53.1692H54.0978V95.8881V92.638H53.1825C52.1213 92.638 52.108 92.6513 52.108 94.0574V94.8932H51.1131H50.1181V93.7656V92.638H49.1232H48.1283V95.8881Z" fill="black"/>
<path d="M57.6796 95.9543V99.2839L59.7755 99.2441L61.8582 99.2043V98.5411V97.8778L60.7041 97.838L59.5368 97.7982V97.44C59.5368 96.5512 59.6163 96.4849 60.6113 96.4849H61.5266V95.6889V94.893H60.5184H59.5235L59.5633 94.3889L59.6031 93.8981L60.7705 93.9511L61.9246 93.9909V93.3144V92.6378H59.8021H57.6796V95.9543Z" fill="black"/>
<path d="M87.1293 93.4472C87.1293 94.1636 87.1558 94.2432 87.3681 94.1503C87.4874 94.0972 87.8191 94.0309 88.0977 93.9911L88.5885 93.9381V96.5381V99.1382H89.5834H90.5783V96.5381V93.9381L91.0824 94.0044C91.3477 94.0442 91.7059 94.1105 91.8784 94.1636C92.157 94.2564 92.1702 94.2299 92.1702 93.4472V92.638H89.6497H87.1293V93.4472Z" fill="black"/>
<path d="M95.0887 95.888V99.1514L96.0571 99.1116L97.0122 99.0718L97.052 97.8381L97.0918 96.6176H98.1398H99.201V97.8779V99.1381H100.196H101.191V95.888V92.6379H100.183H99.1745L99.2674 93.7655L99.3602 94.8931H98.1398H96.9193L97.0122 93.7655L97.1051 92.6379H96.0969H95.0887V95.888Z" fill="black"/>
<path d="M104.773 95.8881V99.1382H106.895H109.018V98.5412V97.9443H107.744H106.484L106.524 97.2412L106.563 96.5514L107.598 96.5116L108.62 96.4718V95.7687V95.0656L108.009 94.9728C107.664 94.933 107.187 94.8932 106.948 94.8932C106.524 94.8932 106.497 94.8666 106.497 94.4289V93.9778L107.731 93.9381L108.951 93.8983V93.3013V92.7043L106.869 92.6646L104.773 92.6248V95.8881Z" fill="black"/>
<path d="M121.249 95.9145L121.288 99.2043H122.217H123.146L123.185 95.9145L123.212 92.6379H122.217H121.222L121.249 95.9145Z" fill="black"/>
</svg>
