<svg width="195" height="142" viewBox="0 0 195 142" fill="none" xmlns="http://www.w3.org/2000/svg">
<path d="M0 61.3089C0.0434211 61.2901 0.0998686 61.2843 0.127369 61.2524C3.54751 57.4024 8.05462 55.1995 12.6356 53.1616C18.1732 50.6982 23.9714 49.3044 30.0822 49.4766C34.763 49.6083 39.1586 50.649 42.8639 53.7015C46.6922 56.8553 48.7142 60.8399 48.319 65.884C48.2698 66.502 48.1483 67.1157 48.0383 67.8944C51.4179 65.5887 55.0363 64.5756 59.1135 65.017C59.0687 64.3585 59.0267 63.7274 58.976 62.9835C57.9238 63.2382 56.957 63.4727 55.9177 63.7231C55.8816 63.2122 55.841 62.7432 55.8164 62.2743C55.6891 59.7747 55.5747 57.275 55.4329 54.7769C55.4068 54.3311 55.5733 54.1241 55.9496 53.8867C58.7633 52.1108 61.9851 51.4088 65.0825 50.3856C68.6662 49.2016 72.273 48.0886 75.8712 46.9452C76.0753 46.88 76.2823 46.8236 76.5413 46.7483C76.5413 47.5053 76.5413 48.2159 76.5413 49.1437C77.3736 47.6298 78.8962 47.4257 80.015 46.6253C80.4174 46.3373 80.6215 46.6238 80.8661 46.8409C84.0966 49.6995 87.3257 52.5581 90.5562 55.4166C90.8081 55.6395 91.0614 55.861 91.3726 56.1345C92.1802 55.7046 92.9951 55.2719 93.8866 54.7986C93.0935 53.8549 92.3553 52.9778 91.5578 52.0312C92.0441 51.4667 92.5232 50.9052 93.0066 50.3508C96.874 45.9248 100.741 41.4973 104.616 37.077C104.817 36.8483 105.065 36.637 105.332 36.4922C106.263 35.99 107.211 35.5196 108.227 35C110.672 38.6387 113.109 42.2673 115.61 45.9913C112.174 47.8382 108.776 49.6648 105.16 51.6071C109.261 51.8677 112.755 53.1341 115.758 55.8668C115.972 54.6177 116.144 53.4699 116.383 52.3366C116.442 52.0573 116.719 51.8242 116.9 51.5739C116.926 51.5377 116.984 51.5275 117.023 51.5C118.693 50.3031 120.53 49.8804 122.592 50.0266C124.561 50.1656 126.547 50.0671 128.524 50.0454C128.81 50.0425 129.114 49.9195 129.375 49.7863C130.339 49.2928 131.282 48.7616 132.248 48.2695C132.449 48.1667 132.707 48.1334 132.938 48.1334C136.509 48.1248 140.078 48.1407 143.649 48.1132C144.183 48.1088 144.352 48.297 144.427 48.7819C145.252 54.0981 146.093 59.4128 146.933 64.7276C146.94 64.7695 146.979 64.8057 147.057 64.9287C149.767 63.0443 152.792 62.0919 156.129 62.0644C156.129 60.7212 156.138 59.4273 156.126 58.1333C156.113 56.6657 156.099 55.1966 156.048 53.729C156.032 53.2846 156.206 53.0733 156.556 52.8171C158.376 51.4885 160.233 51.4002 162.425 51.9704C167.053 53.1761 171.758 54.0865 176.439 55.0881C176.973 55.2024 177.236 55.4123 177.29 55.9478C177.328 56.3212 177.433 56.6889 177.526 57.1462C178.2 56.7902 178.797 56.4385 179.426 56.1577C179.711 56.0303 180.085 55.9406 180.376 56.01C185.148 57.1448 189.914 58.307 194.68 59.4664C194.768 59.4881 194.847 59.546 195 59.6212C194.534 61.0426 194.077 62.4508 193.609 63.8562C189.318 76.7711 185.028 89.6875 180.712 102.595C180.584 102.974 180.234 103.361 179.884 103.569C178.998 104.095 178.08 104.813 177.124 104.902C176.196 104.989 175.203 104.393 174.24 104.09C171.741 103.303 169.248 102.495 166.74 101.734C166.18 101.565 165.989 101.306 166.012 100.725C166.06 99.5513 166.027 98.3761 166.027 97.1675C162.404 96.645 158.907 96.1399 155.277 95.6159C155.475 93.7749 155.675 91.9309 155.867 90.1463C154.291 90.5472 152.741 90.9409 151.148 91.3462C151.308 92.3318 151.457 93.3754 151.654 94.4088C151.753 94.927 151.577 95.173 151.145 95.4972C149.386 96.8143 147.542 96.8708 145.446 96.4293C141.352 95.5667 137.211 94.9255 133.086 94.212C132.537 94.1164 132.284 93.9428 132.251 93.3146C132.191 92.1914 131.983 91.0755 131.827 89.8699C130.964 90.3359 130.149 90.7774 129.285 91.2434C128.7 90.1796 128.136 89.1563 127.535 88.0635C126.754 88.4818 126.026 88.8914 125.276 89.2605C125.031 89.3821 124.719 89.4892 124.462 89.4487C119.879 88.7308 115.299 87.9897 110.624 87.2385C110.94 85.2629 111.248 83.3306 111.562 81.3622C110.46 81.8948 109.431 82.4709 108.344 82.8964C107.253 83.3248 106.12 83.6997 104.971 83.9168C104.279 84.0471 104.201 84.3264 104.205 84.9039C104.225 88.0085 104.201 91.1146 104.228 94.2206C104.232 94.7301 104.067 94.9964 103.62 95.2078C102.71 95.6376 101.83 96.4568 100.922 96.4785C100.045 96.5003 99.1449 95.7274 98.262 95.2917C91.7894 92.0974 85.3197 88.9001 78.847 85.7043C78.5923 85.5784 78.3346 85.4626 77.9583 85.286C77.9583 85.6363 77.9583 85.8881 77.9583 86.14C77.9627 88.2821 77.9554 90.4256 77.98 92.5678C77.9844 92.9803 77.8874 93.2335 77.4836 93.3956C77.061 93.565 76.6456 93.7749 76.2692 94.0282C75.1142 94.8068 73.8015 95.0413 72.4612 95.2324C69.2205 95.6955 65.9842 96.1847 62.745 96.6595C62.5337 96.6899 62.318 96.6841 62.03 96.7C61.8838 95.1282 61.7405 93.5867 61.5857 91.9367C61.3382 92.1104 61.1659 92.2189 61.0082 92.3449C58.7126 94.1685 56.2072 95.5595 53.2604 95.9922C47.8472 96.7883 43.5659 94.9559 40.4656 90.4343C40.344 90.2563 40.2239 90.0754 40.1023 89.8974C40.0893 89.88 40.0632 89.8713 39.9489 89.8004C40.4135 91.5951 40.8593 93.3117 41.3051 95.0297C41.6843 96.493 42.0432 97.9636 42.4557 99.4182C42.5701 99.822 42.4673 99.9884 42.146 100.229C40.3571 101.572 38.3944 102.501 36.2364 103.132C32.8249 104.131 29.4584 105.29 25.9745 106.412C21.3125 95.862 16.6578 85.3294 11.9669 74.7159C11.0478 75.1081 10.1403 75.4656 9.26318 75.8839C8.81015 76.0996 8.60897 75.9867 8.36436 75.5727C5.74028 71.1134 3.09303 66.6714 0.448685 62.2279C0.316974 62.0065 0.150527 61.8068 0 61.5983C0 61.5014 0 61.4058 0 61.3089ZM16.4146 67.0564C17.4452 69.3548 18.4482 71.5968 19.4541 73.8359C21.8379 79.1434 24.2232 84.4494 26.607 89.757C28.0616 92.9976 29.5061 96.2426 30.9781 99.4761C31.0519 99.6382 31.3805 99.835 31.5223 99.7916C33.7976 99.094 36.0613 98.3601 38.3582 97.6249C37.9834 96.1891 37.6244 94.8068 37.264 93.4275C36.1959 89.343 35.1277 85.2585 34.0581 81.174C33.9669 80.8267 33.9741 80.5763 34.3534 80.3346C36.6532 78.8669 38.7244 77.133 40.4685 75.0184C42.6193 72.4102 44.2592 69.5791 44.7469 66.1634C45.31 62.2251 43.8177 59.1204 40.8853 56.6425C38.7056 54.8015 36.1857 53.7131 33.304 53.3078C30.4151 52.9011 27.5536 52.8504 24.6878 53.2615C20.5093 53.8607 16.5261 55.1431 12.7224 56.9552C10.9363 57.8062 9.20818 58.7789 7.37436 59.7385C9.2241 62.8576 10.987 65.8319 12.7716 68.8439C13.9961 68.2432 15.1713 67.6657 16.4146 67.0564ZM178.38 99.1866C182.524 86.6639 186.654 74.1789 190.797 61.6591C187.822 61.002 184.926 60.3637 181.991 59.7153C180.671 65.1516 179.36 70.5532 178.048 75.9563C177.212 72.5839 176.517 69.2376 175.814 65.8927C175.301 63.4539 174.78 61.0165 174.258 58.5791C174.165 58.1449 174.113 57.786 173.478 57.6702C170.715 57.1694 167.97 56.5658 165.217 56.0086C164.346 55.832 163.47 55.6829 162.504 55.5049C162.452 56.6208 162.404 57.621 162.355 58.6414C163.227 58.8874 164.038 59.1161 164.87 59.3506C164.812 59.9541 164.76 60.4998 164.709 61.044C164.597 62.2569 164.526 63.4756 164.352 64.6798C164.294 65.0865 164.322 65.3384 164.617 65.6264C167.553 68.482 168.491 72.0527 167.998 75.9722C167.506 79.8743 165.568 83.0947 162.706 85.7825C162.463 86.0097 162.305 86.4135 162.263 86.7537C162.095 88.1504 161.988 89.5543 161.845 91.1045C164.045 91.4489 166.281 91.7992 168.568 92.1567C169.577 86.4772 170.565 80.9164 171.553 75.3571C171.596 75.3614 171.639 75.3643 171.684 75.3686C171.862 82.6967 172.04 90.0233 172.22 97.3658C174.29 97.978 176.307 98.5743 178.38 99.1866ZM100.864 82.2885C100.382 82.2205 99.9323 82.1785 99.4909 82.0917C94.9707 81.2015 91.3465 78.9842 88.912 74.9894C88.7629 74.7448 88.501 74.5132 88.2376 74.4061C86.5818 73.7259 84.91 73.0832 83.2456 72.4247C81.6708 71.8023 80.099 71.1742 78.4692 70.5272C82.1325 66.6714 85.7394 62.8735 89.3679 59.0539C86.7236 56.5427 84.1516 54.0995 81.5623 51.6404C78.9035 55.3616 76.2895 59.0191 73.58 62.8083C73.3513 59.0003 73.1342 55.3906 72.9099 51.6795C69.2799 52.7549 65.7005 53.8158 62.0604 54.8941C62.1067 55.8508 62.1516 56.7786 62.1993 57.7758C63.2704 57.5211 64.2416 57.291 65.2446 57.0536C65.3662 58.6761 65.4661 60.1814 65.592 61.6837C65.7642 63.7332 65.9422 65.7841 66.1521 67.8307C66.1883 68.1795 66.3171 68.592 66.5487 68.8381C68.6937 71.1177 69.7228 73.8648 69.8849 76.9275C70.034 79.7498 69.2842 82.4029 67.9917 84.8996C67.7775 85.3135 67.6212 85.658 67.7037 86.1631C67.8412 87.0098 67.8151 87.8826 67.8832 88.7423C67.9454 89.5384 68.0395 90.333 68.1234 91.1566C70.2366 90.8729 72.2455 90.5921 74.2559 90.3402C74.7148 90.2824 74.8378 90.0841 74.8349 89.6383C74.8161 86.9187 74.8248 84.199 74.8248 81.478C74.8248 79.8931 74.8248 78.3097 74.8248 76.6134C83.5321 80.9569 92.1614 85.2614 100.862 89.6021C100.864 87.101 100.864 84.7433 100.864 82.2885ZM128.013 71.9905C128.065 71.976 128.116 71.9615 128.168 71.947C129.792 75.4251 131.414 78.9017 133.106 82.5259C134.234 79.6326 135.3 76.8942 136.445 73.9589C137.259 79.3098 138.04 84.4552 138.817 89.5674C141.8 90.0189 144.686 90.4546 147.574 90.8902C147.729 89.3705 147.494 89.0072 146.287 88.3038C142.381 86.0285 140.321 82.5838 140.126 78.1027C139.961 74.3063 141.391 71.0164 143.681 68.0449C143.909 67.7482 144.028 67.2619 143.987 66.8856C143.848 65.5844 143.62 64.2919 143.419 62.998C142.845 59.3028 142.277 55.6077 141.677 51.9169C141.646 51.7244 141.34 51.4349 141.156 51.4306C139.446 51.3915 137.732 51.3915 136.021 51.4219C135.84 51.4248 135.542 51.665 135.506 51.8387C135.226 53.2108 134.995 54.5931 134.753 55.9724C134.261 58.7673 133.772 61.5622 133.281 64.357C133.242 64.3585 133.203 64.3599 133.165 64.3599C132.481 60.6532 131.795 56.9479 131.106 53.221C128.399 53.221 125.772 53.2108 123.147 53.2427C122.963 53.2456 122.665 53.5292 122.623 53.7246C122.388 54.816 122.212 55.9203 122.026 57.0218C121.349 61.0252 120.673 65.0286 120.002 69.0335C119.91 69.5748 119.98 70.009 120.514 70.3868C121.227 70.889 121.837 71.5374 122.507 72.1367C121.439 73.2598 120.436 74.3309 119.411 75.3802C119.088 75.7102 118.812 75.9968 118.79 76.5251C118.766 77.159 118.559 77.7829 118.453 78.4154C118.211 79.8613 117.982 81.3101 117.741 82.8139C120.557 83.2988 123.286 83.7677 126.069 84.2468C126.72 80.1146 127.366 76.0532 128.013 71.9905ZM114.652 59.6328C113.685 58.4069 112.558 57.44 111.238 56.7352C106.512 54.2095 101.77 54.5815 97.1317 56.9161C91.7619 59.6183 89.2927 65.0156 90.7878 70.7877C92.0644 75.7146 96.4543 78.6064 101.665 78.9248C105.308 79.1477 108.709 78.1563 111.96 76.6047C114.066 75.5988 115.917 74.2339 117.516 72.4811C115.626 70.7892 113.769 69.1276 111.857 67.4153C109.792 69.9873 107.195 71.2364 103.791 71.2089C107.485 67.2706 111.039 63.4828 114.652 59.6328ZM53.5976 90.718C54.4023 90.6138 55.2201 90.5675 56.0089 90.3938C59.5854 89.6064 62.3947 87.6423 64.4847 84.6738C66.459 81.8673 67.4736 78.7482 66.8237 75.3194C65.7107 69.4474 60.5725 66.9276 55.5342 67.7207C51.5829 68.3431 48.5231 70.4924 46.2652 73.736C44.3721 76.4571 43.4226 79.4835 44.0305 82.811C44.8844 87.486 48.7822 90.7629 53.5976 90.718ZM143.083 77.848C143.161 78.4313 143.193 79.2259 143.378 79.9829C144.639 85.1239 149.461 87.6597 154.465 86.6958C158.109 85.9938 160.956 83.9791 163.032 80.9381C164.938 78.1447 165.785 75.069 164.922 71.7082C163.607 66.5816 158.581 64.3064 153.77 65.2776C151.598 65.7161 149.667 66.6511 147.972 68.0797C145.001 70.5822 143.241 73.694 143.083 77.848ZM107.644 39.895C106.217 41.6203 104.875 43.2457 103.529 44.8667C102.336 46.3025 101.134 47.7311 99.9497 49.1741C99.8368 49.3131 99.7369 49.5707 99.789 49.7198C100.096 50.6085 100.406 50.7199 101.245 50.3016C101.416 50.2162 101.584 50.1265 101.753 50.0411C104.982 48.4302 108.213 46.8207 111.53 45.1663C110.223 43.3948 108.952 41.6695 107.644 39.895ZM86.974 66.256C85.9753 67.3372 84.9911 68.4039 84.0358 69.4388C84.9795 69.7977 86.0983 70.2232 87.2273 70.6531C87.1419 69.1464 87.0608 67.7424 86.974 66.256Z" fill="black"/>
<path d="M186.43 99.4429C186.43 100.062 186.43 100.68 186.43 101.3C186.377 101.304 186.323 101.31 186.268 101.314C186.227 101.006 186.187 100.698 186.128 100.238C185.918 100.698 185.769 101.023 185.546 101.516C185.31 100.98 185.148 100.609 184.906 100.061C184.874 100.599 184.854 100.941 184.834 101.281C184.754 101.285 184.676 101.288 184.596 101.293C184.596 100.731 184.591 100.168 184.605 99.6065C184.606 99.5428 184.748 99.4183 184.783 99.4313C184.9 99.4762 185.052 99.5471 185.096 99.6484C185.246 99.9972 185.356 100.362 185.533 100.87C185.79 100.288 185.994 99.8265 186.199 99.3647C186.275 99.3908 186.353 99.4169 186.43 99.4429Z" fill="black"/>
<path d="M183.58 101.332C183.111 100.769 183.967 99.7352 182.867 99.4429C183.346 99.4429 183.823 99.4429 184.302 99.4429C183.172 99.728 184.029 100.761 183.58 101.332Z" fill="black"/>
<path d="M32.5586 76.7684C32.1852 75.5656 31.8436 74.4815 31.5107 73.3931C30.6409 70.5389 29.7942 67.6789 28.8924 64.8348C28.713 64.2703 28.8939 64.0894 29.3686 63.8824C31.5064 62.9503 33.6644 62.7072 35.8007 63.784C38.1788 64.9824 38.6448 66.8684 38.5594 69.0163C38.4451 71.8748 36.6938 73.7318 34.5763 75.3427C33.9553 75.816 33.2997 76.2473 32.5586 76.7684ZM33.9249 72.3814C35.0235 71.581 35.6893 70.4853 35.8413 69.3216C36.096 67.3836 35.4375 66.2634 33.744 65.9001C33.2244 65.7886 32.6614 65.8827 31.9782 65.8827C32.6339 68.0697 33.2678 70.1872 33.9249 72.3814Z" fill="black"/>
<path d="M99.2304 71.212C95.9521 69.1639 95.6322 64.2197 98.5414 61.6202C101.087 59.345 104.833 59.5983 106.941 61.6347C107.272 61.9546 107.304 62.163 106.987 62.5176C104.431 65.3791 101.894 68.2564 99.349 71.128C99.3172 71.1642 99.2709 71.1845 99.2304 71.212ZM104.049 62.5466C102.251 61.8634 100.569 62.6421 99.5242 63.8521C98.6847 64.8233 98.4343 66.8612 99.3143 67.9814C100.879 66.1838 102.436 64.3978 104.049 62.5466Z" fill="black"/>
<path d="M61.5451 72.8936C62.6581 74.3786 62.6523 76.5453 61.5393 78.2359C60.3076 80.1073 58.5302 80.9005 56.2795 80.8267C53.9363 80.75 51.7493 79.2042 51.0864 76.9955C50.2281 74.1398 51.9722 71.1495 54.961 70.4302C55.6485 70.2652 56.3794 70.2739 57.0163 70.2102C56.3678 70.7182 55.6253 71.1611 55.071 71.7734C54.4414 72.4681 54.4038 73.3785 54.6961 74.2715C55.1969 75.8028 56.9019 76.7378 58.688 76.4715C60.3582 76.2226 61.4278 74.9171 61.5451 72.8936Z" fill="black"/>
<path d="M155.824 67.4212C153.017 68.2549 152.604 69.9338 152.886 71.154C153.321 73.0399 155.105 73.8475 156.705 73.7115C158.214 73.5841 159.991 72.432 159.814 70.2725C160.893 71.3986 160.783 73.9792 159.584 75.6929C158.063 77.8698 154.841 78.6398 152.223 77.4515C149.991 76.4383 148.654 73.8113 149.14 71.6041C149.706 69.0336 152.265 67.0304 155.824 67.4212Z" fill="black"/>
</svg>
