<svg width="195" height="142" viewBox="0 0 195 142" fill="none" xmlns="http://www.w3.org/2000/svg">
<g clip-path="url(#clip0_40_10332)">
<path fill-rule="evenodd" clip-rule="evenodd" d="M185.949 82.7648H180.346C178.903 82.7648 177.629 83.1396 176.598 83.8329V82.7648H168.503C168.503 82.7648 168.278 83.4581 168.184 83.7392L167.866 82.7648H159.752V86.9811C159.208 85.6693 157.971 82.7648 157.971 82.7648H152.462C152.462 82.7648 151.225 85.6881 150.682 87.0186V82.7648H143.167C139.064 82.7648 136.421 85.763 136.421 90.4104C136.421 95.0577 139.064 98.056 143.167 98.056H154.13C154.13 98.056 154.786 96.4069 155.011 95.826H155.423C155.648 96.3882 156.285 98.0372 156.285 98.0372H176.579V96.9691C177.61 97.6624 178.866 98.0372 180.327 98.0372H187.636V82.7273H185.93L185.949 82.7648ZM139.082 90.4101C139.082 93.652 140.544 95.4322 143.186 95.4322H148.058V89.5106H144.573V91.3283H145.828V93.5208H143.823C142.774 93.5208 141.518 92.9774 141.518 90.4101C141.518 87.8429 142.774 87.2994 143.823 87.2994H148.058V85.388H143.186C140.525 85.388 139.082 87.1683 139.082 90.4101ZM153.026 88.2814L153.027 88.2809L153.035 88.2613C153.699 86.6836 154.216 85.4545 154.242 85.388H154.28H156.285C156.312 85.4548 156.833 86.694 157.501 88.2813L157.502 88.2838L157.504 88.2886C158.71 91.1564 160.393 95.155 160.501 95.4322H158.14C158.065 95.2448 157.278 93.2023 157.278 93.2023H153.268C153.268 93.2023 152.462 95.2448 152.387 95.4322H150.026C150.135 95.1548 151.82 91.1498 153.026 88.2814ZM154.017 91.3096L153.924 91.5345H156.566L155.254 88.1989L154.017 91.3096ZM168.166 92.2466C168.166 92.2466 166.011 85.5942 165.954 85.388H162.394V95.4322H164.624V89.3045L164.999 89.2483C164.999 89.2483 167.022 95.2074 167.097 95.4322H169.271C169.346 95.2261 171.37 89.2483 171.37 89.2483L171.745 89.3045V95.4322H173.975V85.388H170.414C170.339 85.5942 168.184 92.2466 168.184 92.2466H168.166ZM180.983 87.2994C180.477 87.2994 180.065 87.4119 179.69 87.6555L179.671 87.6742C179.034 88.1239 178.828 88.9297 178.772 89.2483L178.734 89.5107H184.993V91.3283H178.734L178.791 91.5907C178.866 91.9842 179.072 92.7338 179.69 93.1648C180.046 93.4084 180.458 93.5208 180.983 93.5208H185.012V95.4322H180.346C177.685 95.4322 176.223 93.652 176.223 90.4101C176.223 87.1683 177.685 85.388 180.346 85.388H185.012V87.2994H180.983Z" fill="#231F20"/>
<path fill-rule="evenodd" clip-rule="evenodd" d="M129.488 82.7646H110.524V87.2621C109.905 85.7817 108.631 82.7646 108.631 82.7646H103.122C103.122 82.7646 101.96 85.538 101.491 86.6437V82.7646H93.9583C89.8544 82.7646 87.2122 85.7629 87.2122 90.4102C87.2122 95.0576 89.8544 98.0558 93.9583 98.0558H104.79C104.79 98.0558 105.445 96.4068 105.67 95.8259H106.083C106.307 96.4068 106.945 98.0558 106.945 98.0558H118.001H121.88H129.488C133.592 98.0558 136.159 95.1325 136.159 90.4102C136.159 85.688 133.61 82.7646 129.488 82.7646ZM99.7113 90.8975H94.9702C94.9702 90.8509 94.9638 90.7979 94.9563 90.7358V90.7358V90.7358L94.9563 90.7358C94.9456 90.648 94.9328 90.542 94.9328 90.4102C94.9328 90.1854 94.9328 90.0542 94.9702 89.923H100.124C100.013 90.1735 99.9567 90.3115 99.8992 90.4515L99.8992 90.4516C99.8491 90.5735 99.7984 90.6969 99.7113 90.8975ZM89.8544 90.4099C89.8544 93.6518 91.3161 95.432 93.977 95.432H98.868V93.5206H94.6142C93.5648 93.5206 92.3092 92.9772 92.3092 90.4099C92.3092 87.8427 93.5648 87.2992 94.6142 87.2992H98.868V85.3878H93.977C91.3161 85.3878 89.8544 87.168 89.8544 90.4099ZM103.667 88.2813C104.335 86.6939 104.856 85.4546 104.883 85.3878H106.888C106.915 85.4546 107.436 86.694 108.104 88.2814C109.311 91.1498 110.996 95.1546 111.105 95.432H108.743C108.668 95.2446 107.881 93.2021 107.881 93.2021H103.89C103.89 93.2021 103.084 95.2446 103.009 95.432H100.667C100.775 95.1546 102.46 91.1497 103.667 88.2813ZM104.658 91.3094L104.565 91.5343H107.207L105.895 88.1987L104.658 91.3094ZM129.506 85.3878H124.522V95.432H129.506C132.149 95.432 133.535 93.6893 133.535 90.4099C133.535 87.1306 132.149 85.3878 129.506 85.3878ZM128.776 93.5206H126.677V87.2805H128.776C129.825 87.2805 131.081 87.8239 131.081 90.3912C131.081 92.9584 129.825 93.5019 128.776 93.5019V93.5206ZM121.805 88.5547C121.805 90.0164 121.355 90.9346 120.418 91.3656H120.381L120.249 91.4218C120.249 91.4218 121.767 95.0198 121.936 95.4133H119.575C119.5 95.2259 118.188 91.8154 118.188 91.8154L118.151 91.7217H115.396V95.432H113.166V85.3878H118.825C120.886 85.3878 121.805 86.3623 121.805 88.5547ZM115.415 89.9789H118.094C119.031 89.9789 119.537 89.4917 119.537 88.5922C119.537 87.4116 118.713 87.2805 118.094 87.2805H115.415V89.9789Z" fill="#231F20"/>
<path fill-rule="evenodd" clip-rule="evenodd" d="M78.7983 82.7646H84.6075H84.645H86.3502V98.0746H78.8358C77.3554 98.0746 76.0811 97.681 75.0317 96.969V98.0746H69.5037H68.4168H55.8053V96.9877C54.7747 97.6998 53.5004 98.0746 52.02 98.0746H40.8889C40.8889 98.0746 40.2518 96.4068 40.0269 95.8446H39.6147C39.3898 96.4255 38.7339 98.0746 38.7339 98.0746H34.5926H33.1871H30.4699H28.8959H14.729L13.6796 97.1751V89.9418H10.3066V82.7834H29.6829C32.7187 82.7834 34.705 84.4137 35.1735 87.2058C35.7919 85.7442 37.0287 82.7834 37.0287 82.7834H42.538C42.538 82.7834 43.7935 85.7629 44.3932 87.1871V82.7646H51.9825C53.4629 82.7646 54.7372 83.1394 55.7679 83.8515V82.7646H60.8837H62.4952H74.9943V83.8703C76.0437 83.1582 77.3179 82.7646 78.7983 82.7646ZM16.303 87.2992H12.93V85.3878H21.9061V87.2992H18.533V95.432H16.303V87.2992ZM38.7901 85.3878C38.7634 85.4546 38.242 86.694 37.5741 88.2814C36.3673 91.1498 34.6823 95.1546 34.5738 95.432H36.9349C37.0099 95.2446 37.8157 93.2021 37.8157 93.2021H41.8071C41.8071 93.2021 42.5942 95.2446 42.6691 95.432H45.0302C44.9217 95.1546 43.2367 91.1496 42.0299 88.2812C41.362 86.6938 40.8406 85.4546 40.8139 85.3878H38.8088H38.7901ZM38.4715 91.5343L38.5652 91.3094L39.802 88.1987L41.1138 91.5343H38.4715ZM47.0165 85.3878H51.9824C54.6246 85.3878 56.0113 87.1306 56.0113 90.4099C56.0113 93.6893 54.6246 95.432 51.9824 95.432H47.0165V85.3878ZM49.1902 93.5206H51.2703V93.5019C52.3197 93.5019 53.5752 92.9584 53.5752 90.3912C53.5752 87.8239 52.3197 87.2805 51.2703 87.2805H49.1902V93.5206ZM58.3912 95.432H60.6212V85.3878H58.3912V95.432ZM69.8221 91.6654H70.122V85.3878H72.3519V95.432H69.4661C69.3724 95.2634 66.093 89.2294 66.093 89.2294L65.737 88.6859V95.432H63.507V85.3878H66.3929L69.8221 91.6654ZM74.6944 90.4099C74.6944 93.6518 76.1561 95.432 78.7983 95.432H83.6892V89.5104H80.2037V91.3281H81.4593V93.5206H79.4542C78.4048 93.5206 77.1492 92.9772 77.1492 90.4099C77.1492 87.8427 78.4048 87.2992 79.4542 87.2992H83.6892V85.3878H78.7983C76.1373 85.3878 74.6944 87.168 74.6944 90.4099ZM32.6437 88.5547C32.6437 90.0164 32.1939 90.9346 31.257 91.3656H31.2195L31.0883 91.4218C31.0883 91.4218 32.6062 95.0198 32.7749 95.4133H30.4137C30.3388 95.2259 29.027 91.8154 29.027 91.8154L28.9895 91.7217H26.2349V95.432H24.0049V85.3878H29.6642C31.7255 85.3878 32.6437 86.3623 32.6437 88.5547ZM26.2536 89.9789H28.9333C29.8703 89.9789 30.3762 89.4917 30.3762 88.5922C30.3762 87.4116 29.5517 87.2805 28.9333 87.2805H26.2536V89.9789Z" fill="#231F20"/>
<path fill-rule="evenodd" clip-rule="evenodd" d="M195 48.0221C195 48.0221 187.954 54.9556 187.186 55.7052L187.167 55.6864C187.092 56.8295 186.005 72.0645 185.93 73.1139C187.186 74.3507 187.917 76.0185 187.917 77.8362C187.917 81.4716 184.731 84.5448 180.964 84.5448C179.99 84.5448 179.072 84.2824 178.228 83.8889H165.392H151.75C150.982 83.8889 150.419 83.8889 149.988 83.8514L150.045 83.8889H142.699C142.699 83.8889 143.598 83.0082 144.779 81.8463C142.268 83.6828 139.213 84.7884 135.672 84.7884C127.127 84.7884 121.392 78.3421 119.612 70.9214H109.83V76.2621C110.655 77.0866 117.57 83.8889 117.57 83.8889H99.4114C98.6431 83.8702 98.0809 83.8702 97.6499 83.8702H90.4166C88.3553 84.4136 86.3127 84.5635 83.7829 84.5635C75.7438 84.5635 68.3043 78.5108 65.9432 70.9214H55.9365V76.2433L63.6945 83.9076H44.2807V83.1581C42.7254 84.0763 41.1325 84.5823 39.4273 84.5823C38.1683 84.5823 37.0423 84.3242 36.0543 83.8889H29.0457H28.1088H7.7955C7.7955 83.8889 14.9913 76.8055 15.8346 75.981V68.148C15.5932 67.7309 13.6419 64.325 12.0251 61.5027L12.0239 61.5006C10.8806 59.5049 9.90471 57.8015 9.81933 57.654C9.51951 57.3542 4.5911 52.5008 4.5911 52.5008L2.96079 50.9079L0 48.0034H42.9315L33.2995 57.6353C33.2621 57.7103 32.9622 58.2724 32.7561 58.6285C36.7475 57.2605 48.5158 53.2129 48.5158 53.2129C48.5158 53.2129 45.7798 58.16 45.4238 58.7971C47.4066 58.1152 50.899 56.9223 54.1449 55.8135L54.1454 55.8134L54.1468 55.8129C56.6979 54.9415 59.0965 54.1221 60.4901 53.6439L61.2209 54.1686C61.2209 54.1686 58.5037 59.097 56.836 62.0952H65.6059C67.5548 53.9999 75.3315 47.3475 83.7642 47.3475C86.3127 47.3475 88.374 47.5536 90.6789 48.3219C91.2036 47.7785 91.7658 47.2163 91.7658 47.2163L93.3586 45.586L96.2632 44.0494V59.8653L96.3447 59.8372C96.9066 59.6434 97.9119 59.2967 99.3927 58.7971C98.1184 57.5791 97.3126 55.8551 97.3126 53.9624C97.3126 50.2521 100.311 47.2538 104.021 47.2538C107.732 47.2538 110.73 50.2708 110.73 53.9624C110.73 54.3015 110.679 54.6065 110.625 54.9262L110.617 54.9743C111.067 54.8244 115.696 53.2316 115.696 53.2316L110.805 62.0952H119.406C120.868 54.2248 126.733 47.1414 135.69 47.1414C142.811 47.1414 147.983 51.6013 150.532 57.3917V55.4803L145.229 50.1771L161.457 45.0613L163.781 44.3305L168.016 43C168.016 43 162.581 52.1447 162.169 52.8568V57.4104C164.268 56.1737 166.067 55.9863 166.91 55.9863C171.895 55.9863 175.361 60.1089 175.361 63.8005V74.6692C175.661 74.0883 176.073 73.5824 176.542 73.1139C176.467 72.0457 175.418 56.867 175.343 55.7052C174.574 54.9556 167.528 48.0221 167.528 48.0221H195ZM34.5551 83.0269C34.5894 83.0518 34.6241 83.0765 34.6589 83.101C34.6155 83.0757 34.5804 83.051 34.5551 83.0269ZM139.588 65.9742C139.588 61.2332 138.895 55.574 135.672 55.574C132.43 55.574 131.755 61.2332 131.755 65.9742C131.755 70.7153 132.43 76.3745 135.672 76.3745C138.914 76.3745 139.588 70.7153 139.588 65.9742ZM163.518 66.2366C163.518 66.2366 162.675 67.0611 162.15 67.5858L162.169 67.6046V76.2995L162.169 76.2997L162.172 76.3021C162.364 76.4949 163.239 77.3697 163.706 77.8174V66.0679C163.631 66.1242 163.593 66.1616 163.518 66.2366ZM98.1746 76.2433V67.9231C97.8097 68.2809 97.4994 68.584 97.2344 68.8429L97.2327 68.8446L97.2302 68.847C96.8033 69.2641 96.4941 69.5661 96.2632 69.797V78.1172C96.6281 77.7595 96.9465 77.4482 97.2185 77.1823C97.659 76.7518 97.9777 76.4403 98.1746 76.2433ZM89.7982 62.0952C89.7232 61.9641 88.3178 59.7341 88.3178 59.7341L88.2991 59.7528C87.2309 57.9914 86.7624 57.223 85.6194 56.2486C85.0572 55.7239 84.6262 55.574 83.7642 55.574C80.6722 55.574 79.0044 58.7597 78.2923 62.0952H89.7982ZM84.6074 69.7783L78.0862 63.2571C77.955 64.194 77.8801 65.1122 77.8801 65.9555C77.8801 70.7902 78.9107 76.5619 83.7642 76.5619C84.1764 76.5619 84.4013 76.4682 84.6074 76.2808V69.7783ZM25.1854 54.9555C24.5483 54.3184 24.136 53.9062 23.349 53.1379L23.3303 53.1566L21.5313 54.9556L21.8356 55.5113L21.8357 55.5115L21.8365 55.513L21.8368 55.5136L21.8375 55.5148C22.4007 56.5431 23.1646 57.9379 23.3678 58.3287C23.4802 58.1038 24.5109 56.1924 25.1855 54.9556L25.1854 54.9555ZM42.7253 64.6812V74.5193L42.9315 74.3132C42.9315 74.3132 43.7185 73.5449 44.262 73.0202V66.1991C43.9059 65.8431 43.4937 65.4308 42.7253 64.6812ZM27.4529 68.1667V76.0559L27.4342 76.0747C28.2774 76.8992 32.7374 81.2842 32.8123 81.3591C31.688 79.8975 31.0696 78.2109 31.0696 76.7868V66.1991C30.7885 65.918 29.964 65.0935 29.4393 64.5875C28.5585 66.1804 27.6965 67.7357 27.4529 68.1667ZM56.6859 64.7372H64.8562V68.3164H56.6859V64.7372ZM118.656 64.7372H110.486V68.3164H118.656V64.7372ZM121.655 65.9554C121.655 57.5977 127.258 49.7647 135.672 49.7647C144.086 49.7647 149.689 57.5977 149.689 65.9554C149.689 74.313 144.086 82.146 135.672 82.146C127.258 82.146 121.655 74.313 121.655 65.9554ZM129.132 65.9741C129.132 71.727 130.106 78.9978 135.672 78.9978C141.218 78.9978 142.212 71.727 142.212 65.9741C142.212 60.2212 141.218 52.9504 135.672 52.9504C130.125 52.9504 129.132 60.2212 129.132 65.9741ZM24.8294 77.1612V67.4731L31.2007 56.0422L36.6163 50.664H24.5858L28.4648 54.4681L23.3865 63.8377L18.3081 54.4681L22.1122 50.664H6.42749L11.9181 56.0609L18.458 67.4731V77.105L14.2043 81.2839H15.1225H15.1412H28.1087H29.0269L24.8294 77.1612ZM100.817 65.0932L100.142 64.4186L97.7998 62.1324L110.074 57.9349L107.207 63.1444V77.3861L111.142 81.2839H97.7061H97.6874H96.8254L100.817 77.3487V65.0932ZM177.891 54.5431L179.128 72.6639H181.245H183.344L184.618 54.5244L188.572 50.6454H173.937L177.891 54.5431ZM172.719 63.8002V77.3674H172.7L176.673 81.3027H166.31V64.681C166.31 64.0064 165.842 62.7134 164.549 62.7134C163.818 62.7134 162.787 63.1819 161.644 64.3812L159.508 66.5174V77.4049L163.481 81.3027H149.108L153.137 77.3299V54.4119L150.12 51.3949L162.225 47.5721L159.527 52.1445V63.1819L161.401 61.3079C163.687 59.0218 165.823 58.6095 166.91 58.6095C170.283 58.6095 172.719 61.3642 172.719 63.8002ZM53.2943 77.3674V63.1069L56.1614 57.9349L43.9059 62.1324L46.9229 65.0932V74.1255L44.7867 76.2056C43.6436 77.4049 42.6504 77.8734 41.9383 77.8734C40.5329 77.8734 40.1206 76.6178 40.1206 75.9432V63.0319L42.9315 57.9349L30.7135 62.1324L33.7305 65.0932V76.7677C33.7305 78.9415 35.8106 81.9585 39.446 81.9585C40.9076 81.9585 42.7628 81.5462 45.049 79.3163L46.9229 77.4424V81.2839H57.2857L53.313 77.3674H53.2943ZM97.6495 64.7184H97.6873L97.6686 64.6997L97.6495 64.7184ZM83.2956 64.7184H97.6495L93.6396 68.6537V79.691C90.1729 81.6024 87.6806 81.921 83.7828 81.921C75.4814 81.921 67.7983 74.4441 67.7983 65.9365C67.7983 57.4289 75.4814 49.952 83.7828 49.952C86.8186 49.952 88.7862 50.1581 91.4097 51.3199L93.6584 49.0337V63.2193L90.5851 58.3471C89.4795 56.5294 88.8049 55.48 87.4182 54.2807C86.3688 53.325 85.3007 52.9315 83.7828 52.9315C77.8612 52.9315 75.2752 59.7151 75.2752 65.9552C75.2752 72.1954 77.0367 79.2038 83.7828 79.2038C85.5654 79.2038 86.426 78.2698 86.9388 77.7132C87.0675 77.5735 87.1743 77.4576 87.2683 77.3861V68.6911L83.2956 64.7184ZM104.021 58.0472C106.27 58.0472 108.088 56.2295 108.088 53.9808C108.088 51.7321 106.27 49.9144 104.021 49.9144C101.772 49.9144 99.9547 51.7321 99.9547 53.9808C99.9547 56.2295 101.772 58.0472 104.021 58.0472ZM177.16 77.8734C177.16 75.6247 178.978 73.807 181.227 73.807C183.475 73.807 185.293 75.6247 185.293 77.8734C185.293 80.1221 183.213 81.9398 180.964 81.9398C178.716 81.9398 177.16 80.1221 177.16 77.8734Z" fill="#231F20"/>
</g>
<defs>
<clipPath id="clip0_40_10332">
<rect width="195" height="142" fill="white"/>
</clipPath>
</defs>
</svg>
